/* XPM */
static char *chicken1710852430[] = {
/* columns rows colors chars-per-pixel */
"16 16 5 1 ",
"  c None",
". c black",
"X c #AC3232",
"o c #DF7126",
"O c gray92",
/* pixels */
"     ...        ",
"   ..XXX..      ",
"  .OOOOOOO.     ",
" .OOOOOOOOO.    ",
" .OOOOOOOOO.    ",
" .OO.OO.OOO...  ",
" .OO.OO.OOO.OO. ",
" .OoooOOOOO.OO. ",
" .OOOXOOOOOO.O. ",
" .OOOOOOOOOOOO. ",
" .OOOOOOOOOOOO. ",
" .OOOOOOOOOOO.  ",
" .OOOOOOOOOOO.  ",
"  .OOO..OOO..   ",
"   .o.  .o.     ",
"   ..   ..      "
};
