/* XPM */
static char *chick1711109470[] = {
/* columns rows colors chars-per-pixel */
"64 64 209 2 ",
"   c None",
".  c #120206",
"X  c #120207",
"o  c #120307",
"O  c #2B130A",
"+  c #2D140A",
"@  c #2E1810",
"#  c #2F1911",
"$  c #2E1C13",
"%  c #2F1E13",
"&  c #301A12",
"*  c #301B12",
"=  c #301A13",
"-  c #301D13",
";  c #301E13",
":  c #301F14",
">  c #301C16",
",  c #301D19",
"<  c #301F1C",
"1  c #30201D",
"2  c #45240D",
"3  c #562F0E",
"4  c #482913",
"5  c #482D15",
"6  c #482E1A",
"7  c #4A331D",
"8  c #49371D",
"9  c #48381E",
"0  c #4A381F",
"q  c #613510",
"w  c #4A3827",
"e  c #4A3928",
"r  c #5A3C21",
"t  c #774413",
"y  c #774717",
"u  c #774A18",
"i  c #5A4826",
"p  c #664524",
"a  c #6B4A27",
"s  c #6B4B2A",
"d  c #6B4E28",
"f  c #66542B",
"g  c #6B522A",
"h  c #6B562C",
"j  c #6B582D",
"k  c #7B5225",
"l  c #7E572C",
"z  c #7D5C2F",
"x  c #6B5033",
"c  c #6B543C",
"v  c #7B602B",
"b  c #7D6631",
"n  c #7D6733",
"m  c #7D6A35",
"M  c #7E6B34",
"N  c #7D693A",
"B  c #7D6B3E",
"V  c #6B5945",
"C  c #6B5B49",
"Z  c #7D6B4C",
"A  c #7D6D51",
"S  c #915515",
"D  c #A7651A",
"F  c #A7671B",
"G  c #BE731A",
"H  c #9C6424",
"J  c #9C6E28",
"K  c #9A6E37",
"L  c #BD7722",
"P  c #BD7D25",
"I  c #AF7B37",
"U  c #A67B3C",
"Y  c #A67B42",
"T  c #A0823A",
"R  c #A6813F",
"E  c #D7841E",
"W  c #DE8A21",
"Q  c #DE8C22",
"!  c #D4892A",
"~  c #D4932E",
"^  c #C18230",
"/  c #C19238",
"(  c #E69023",
")  c #E69325",
"_  c #ED9526",
"`  c #ED9A28",
"'  c #EA9A32",
"]  c #E69F3D",
"[  c #EFA330",
"{  c #EAA838",
"}  c #EBAF3E",
"|  c #F3A230",
" . c #F6AC3C",
".. c #9A8641",
"X. c #A28440",
"o. c #A68842",
"O. c #A28E45",
"+. c #A68E45",
"@. c #B18640",
"#. c #A69246",
"$. c #AF9241",
"%. c #B09645",
"&. c #B19B4A",
"*. c #B19D4B",
"=. c #B19A4D",
"-. c #A68350",
";. c #A28A53",
":. c #A68B5F",
">. c #B19E54",
",. c #A29161",
"<. c #A6936E",
"1. c #A69775",
"2. c #B19E72",
"3. c #B1A27A",
"4. c #CA9447",
"5. c #C49E43",
"6. c #C7A24D",
"7. c #D7A640",
"8. c #C7AC52",
"9. c #C7A95A",
"0. c #C7B254",
"q. c #CAB555",
"w. c #DEBE59",
"e. c #E3A449",
"r. c #E6B648",
"t. c #E7BA4B",
"y. c #F6B641",
"u. c #FAB549",
"i. c #F9BD4A",
"p. c #E1AB51",
"a. c #E5AF52",
"s. c #E1AC59",
"d. c #E1B455",
"f. c #E1BD59",
"g. c #ECBF5A",
"h. c #FDBF55",
"j. c #C7AB6D",
"k. c #DEB968",
"l. c #C7B570",
"z. c #E1B76E",
"x. c #DEC85E",
"c. c #E3C457",
"v. c #E3C659",
"b. c #E1C75D",
"n. c #E1CB5F",
"m. c #FBC453",
"M. c #FACA52",
"N. c #FBCE58",
"B. c #FFC85D",
"V. c #FECA5C",
"C. c #FDD25D",
"Z. c #E5CA60",
"A. c #E5CE61",
"S. c #E5CF61",
"D. c #ECC961",
"F. c #F4C763",
"G. c #FBC564",
"H. c #F4CF61",
"J. c #FFC966",
"K. c #ECD463",
"L. c #ECD664",
"P. c #E5D06A",
"I. c #FFD162",
"U. c #FED662",
"Y. c #FFD267",
"T. c #F4DA66",
"R. c #F4DD67",
"E. c #FDDE63",
"W. c #FFD865",
"Q. c #FFDA66",
"!. c #FEDF65",
"~. c #FFDB69",
"^. c #FFDE68",
"/. c #F4C975",
"(. c #FFDF72",
"). c #FFD976",
"_. c #FFD47A",
"`. c #FEE167",
"'. c #FBE068",
"]. c #FFE269",
"[. c #FFE36A",
"{. c #FBE46A",
"}. c #FFE46B",
"|. c #FFE56B",
" X c #FFE66B",
".X c #FFE76C",
"XX c #FFE56E",
"oX c #FFE86C",
"OX c #FFE771",
"+X c #FFE874",
"@X c #FFE47B",
"#X c #C7B783",
"$X c #DECD8D",
"%X c #E1C282",
"&X c #ECCD87",
"*X c #ECD980",
"=X c #FFDF8F",
"-X c #E1CD97",
";X c #E5D098",
":X c #FFE185",
">X c #FFE984",
",X c #F4E296",
"<X c #FFE994",
"1X c #E1D2A1",
"2X c #E5D6A3",
"3X c #ECDDA6",
"4X c #FFEAA3",
"5X c #F4E4A9",
"6X c #FBEBAC",
/* pixels */
"                                                                                                                                ",
"                                                                                                                                ",
"                                                                                                                                ",
"                                                                                                                                ",
"                                                                                                                                ",
"                                                                                                                                ",
"                                                                                                                                ",
"                                                                                                                                ",
"                                                                                                                                ",
"                                                                                                                                ",
"                                                                                                                                ",
"                                                                                                                                ",
"                                                                                                                                ",
"                                                                                                                                ",
"                                                                                                                                ",
"                                                                                                                                ",
"                                                                                                                                ",
"                                                                                                                                ",
"                                                                                                                                ",
"                                                                                                                                ",
"                                                                                                                                ",
"                                                                                                                                ",
"                                                                                                                                ",
"                                                                                                                                ",
"                                                                                                                                ",
"                                                                                                                                ",
"                                                                                                                                ",
"                                                                                                                                ",
"                                                                                                                                ",
"                                                                                                                                ",
"                                                                                                                                ",
"                                                                                                                                ",
"                                                  X . . X X X X . . . . . . X                                                   ",
"                                                X X X X X X X X X . X X X X X X                                                 ",
"                                                # # $ > , < 1 1 1 1 < , > # # #                                                 ",
"                                              6 r p s x c V C C C C V c x s p r 6                                               ",
"                                          X @ r l K Y -.:.1.1.1.1.1.<.:.-.Y K l r # .                                           ",
"                                        X X & p K 4.s.z.%X-X-X1X1X1X-X/.z.s.4.K p # . X                                         ",
"                                        X X & a U p.J._.=X4X6X5X2X2X;X&X/.G.p.U a & o .                                         ",
"                                        X X & s X.d.Y.).:X<X,X$X#X3.2.j.z.F.d.X.d - X .                                         ",
"                                        . X > g o.f.~.(.@X>X*Xl.,.A Z ;.9.n.f.o.g - X X                                         ",
"                                        . . - h +.n.]..XOX+XP.>.Z w w N *.S.v.#.h - X X                                         ",
"                                        % % 9 M *.S.oXoX.XoXS.*.M w 9 v %.c.v.R z 5 + +                                         ",
"                                      9 i f M +.0.L.oXoXoXoXL.0.O.m n T 5.y.c./ J u q 3 2                                       ",
"                                  X $ i M ..*.0.x.R.oXoXoXoXR.x.0.*.%.5.7.} { ~ P F S t 3 + o                                   ",
"                                X X % f ..q.A.L.R.{.oXoXoXoX{.R.L.S.c.t.} [ ` ) E E G S q + . .                                 ",
"                                X X % f ..q.A.K.T.'.]. X X.XoXoXoXoX'.M.} | _ ( ( E G S q + . .                                 ",
"                                  X $ i M ..&.8.w.H.W.^.]. XoXoXoXoXE.N.m. .` ! L F S t 3 O .                                   ",
"                                      9 i f n X.6.g.I.W.^. XoXoXoXoX`.C.m.u.] ^ H u q 3 2                                       ",
"                                        % % 7 z @.a.V.I.W.].oXoXoX.X].U.V.h.e.I k 4 + O                                         ",
"                                        . X # p K 4.p.d.c.n.n.n.n.n.b.f.d.p.4.K p # X X                                         ",
"                                          X # r l K U Y R #.#.#.#.#.+.o.R U K l r @ X                                           ",
"                                              7 r p a d g h h h j h h g d a p r 6                                               ",
"                                                @ # & - - - - 1 > 1 ; ; - & # @                                                 ",
"                                                . . o o . X X X . . . . X X X .                                                 ",
"                                                  . . . . . . . . . . . . . X                                                   ",
"                                                                                                                                ",
"                                                                                                                                ",
"                                                                                                                                ",
"                                                                                                                                ",
"                                                                                                                                ",
"                                                                                                                                ",
"                                                                                                                                ",
"                                                                                                                                "
};
