/* XPM */
static char *chicken1711109471[] = {
/* columns rows colors chars-per-pixel */
"64 64 175 2 ",
"   c None",
".  c black",
"X  c #030201",
"o  c #040404",
"O  c #0A0502",
"+  c #0B0B0B",
"@  c #130606",
"#  c #150606",
"$  c #110903",
"%  c #180C04",
"&  c #190D04",
"*  c #1B0D04",
"=  c #1F1005",
"-  c gray7",
";  c gray10",
":  c #1B1B1B",
">  c #1D1D1D",
",  c #270C0C",
"<  c #331A08",
"1  c #341A09",
"2  c #341010",
"3  c #3D1111",
"4  c #36281E",
"5  c gray13",
"6  c #302323",
"7  c #362A22",
"8  c gray20",
"9  c gray21",
"0  c #373737",
"q  c #401313",
"w  c #4E1717",
"e  c #631C1C",
"r  c #6B1F1F",
"t  c #44220C",
"y  c #49250C",
"u  c #4F280D",
"i  c #572C0F",
"p  c #653311",
"a  c #7A3E15",
"s  c #562E2E",
"d  c #663D21",
"f  c #7B3939",
"g  c #67422A",
"h  c #484848",
"j  c gray30",
"k  c gray33",
"l  c #585858",
"z  c gray36",
"x  c #5F5F5F",
"c  c #695B52",
"v  c #665C5C",
"b  c #6A615B",
"n  c #6A6A6A",
"m  c gray42",
"M  c gray43",
"N  c gray49",
"B  c #862727",
"V  c #962C2C",
"C  c #804116",
"Z  c #AB571D",
"A  c #AE581D",
"S  c #965223",
"D  c #975B32",
"F  c #AC6839",
"G  c #C4583C",
"H  c #C76725",
"J  c #CE6E2C",
"K  c #DA6C2A",
"L  c #CF6233",
"P  c #C8743A",
"I  c #D57534",
"U  c #DC7230",
"Y  c #DE7836",
"T  c #DD7D3B",
"R  c #E07D3C",
"E  c #A14444",
"W  c #B94E45",
"Q  c #B44949",
"!  c #B95048",
"~  c #BB5D5D",
"^  c #8B6145",
"/  c #806464",
"(  c #9B6C6C",
")  c #8C7361",
"_  c #B67373",
"`  c #C55E45",
"'  c #D06C43",
"]  c #C27E4F",
"[  c #D57345",
"{  c #DB7940",
"}  c #CE7559",
"|  c #C7776D",
" . c #C47777",
".. c #C87C76",
"X. c #E0803F",
"o. c #AF8467",
"O. c #AF866A",
"+. c #DB8556",
"@. c #E28E54",
"#. c #D89465",
"$. c #D2966D",
"%. c #D08675",
"&. c #D89073",
"*. c #D89276",
"=. c #E19667",
"-. c #E09A71",
";. c #E39F70",
":. c #E4A87F",
">. c #818181",
",. c gray53",
"<. c gray55",
"1. c gray56",
"2. c #9C8F85",
"3. c #939393",
"4. c #9B9595",
"5. c #9D9895",
"6. c gray62",
"7. c #AB9A9A",
"8. c #BB9F9F",
"9. c #B2A398",
"0. c #B4B4B4",
"q. c #B7B7B7",
"w. c gray72",
"e. c #C98686",
"r. c #D59F96",
"t. c #D4AB8F",
"y. c #C7AD9C",
"u. c #DCB89F",
"i. c #E2AF93",
"p. c #E6BB9E",
"a. c #CBA3A3",
"s. c #D2A3A3",
"d. c #D3A6A6",
"f. c #D6A9A5",
"g. c #DBAEA4",
"h. c #D6AEAE",
"j. c #DFB4A3",
"k. c #E4BAA2",
"l. c #E6BDA1",
"z. c #D0C2B9",
"x. c #E7C3AA",
"c. c #E3C8BE",
"v. c #E8CEBD",
"b. c #CACACA",
"n. c #CECECE",
"m. c #DCC0C0",
"M. c #D0CECE",
"N. c #D1CFCE",
"B. c #D8D3CF",
"V. c gray82",
"C. c #D6D0D0",
"Z. c #DBD2D2",
"A. c #DFD6D1",
"S. c gray85",
"D. c #E9DACF",
"F. c #E2D1D1",
"G. c #E0D3D3",
"H. c #E6D7D3",
"J. c #E3D4D4",
"K. c #E4D5D4",
"L. c #E4D7D7",
"P. c #E7D9D3",
"I. c #E6DAD2",
"U. c #E9DBD3",
"Y. c #E9DCD2",
"T. c #EADED5",
"R. c #E6DDDD",
"E. c #EAE1DC",
"W. c gray88",
"Q. c #E7E7E7",
"!. c #E8E2E2",
"~. c #EAE5E2",
"^. c #EAE8E8",
"/. c #EBE9E8",
"(. c gray92",
/* pixels */
"                                        . . . . . . . . . . . .                                                                 ",
"                                        . . . . . . . . . . . .                                                                 ",
"                                        @ @ # # # # # # @ @ # @                                                                 ",
"                                      , 2 3 q q q q q q q q q 2 ,                                                               ",
"                          . . . . . @ 2 w e r r r r r r r r e w 2 @ . . . . .                                                   ",
"                        . . . . . . @ 3 e B V V V V V V V V B e q # . . . . . .                                                 ",
"                        : > > > > > 6 s f E Q Q Q Q Q Q Q Q E f s 6 > > > > > :                                                 ",
"                      9 h k l l l l v / ( _  . . . . . . . ._ ( / v l l l l k h 9                                               ",
"                  . : h m ,.3.3.3.3.4.7.8.a.d.d.d.d.d.d.d.d.a.8.7.4.3.3.3.3.,.m h : .                                           ",
"                . . > k ,.q.n.n.M.M.M.C.Z.Z.K.K.K.G.K.K.K.G.G.Z.C.M.n.M.n.n.q.,.k > . .                                         ",
"                : > 9 m 6.V.(.(.(.(.(.(.(.(.(.(.(.(.(.(.(.(.(.(.(.(.(.(.(.(.V.6.m 9 > :                                         ",
"              9 h k m 1.0.S.(.(.(.(.(.(.(.(.(.(.(.(.(.(.(.(.(.(.(.(.(.(.(.(.S.0.1.m k h 9                                       ",
"          . > h m ,.6.q.b.W.(.(.(.(.(.(.(.(.(.(.(.(.(.(.(.(.(.(.(.(.(.(.(.(.W.b.0.6.,.m h : .                                   ",
"        . . > k ,.q.V.S.S.(.(.(.(.(.(.(.(.(.(.(.(.(.(.(.(.(.(.(.(.(.(.(.(.(.Q.W.S.V.q.,.k > . .                                 ",
"        . . > l 3.n.(.(.(.(.(.(.(.(.(.(.(.(.(.(.(.(.(.(.(.(.(.(.(.(.(.(.(.(.(.(.(.(.n.3.l > . .                                 ",
"        . . > k 3.n.(.(.(.(.(.(.(.(.(.(.(.(.(.(.(.(.(.(.(.(.(.(.(.(.(.(.(.(.(.(.(.(.n.3.l > . .                                 ",
"        . . > l 3.n.(.(.(.(.(.(.(.(.(.(.(.(.(.(.(.(.(.(.(.(.(.(.(.(.(.(.(.(.(.(.(.(.n.3.l > . .                                 ",
"        . . > l 3.n.(.(.(.(.(.(.(.(.(.(.(.(.(.(.(.(.(.(.(.(.(.(.(.(.(.(.(.(.(.(.(.(.n.3.l > . .                                 ",
"        . . > l 3.n.(.(.(.(.Q.W.S.V.V.S.W.Q.(.(.(.(.Q.W.S.V.V.S.W.Q.(.(.(.(.(.(.(.(.n.3.l > . .                                 ",
"        . . > l 3.n.(.(.(.(.E.b.0.6.6.0.b.W.(.(.(.(.W.b.0.6.6.0.b.W.(.(.(.(.(.(.(.(.n.3.l > . . .                               ",
"        . . > l 3.n.(.(.(.(.S.0.1.n n 1.0.S.(.(.(.(.S.0.1.m m 1.q.S.(.(.(.(.(.(.(.(.n.3.l > . . . . . . . . .                   ",
"        . . > l 3.n.(.(.(.(.V.6.n 0 0 m 6.V.(.(.(.(.V.6.m 9 9 m 6.n.(.(.(.(.(.(.(.(.n.3.l > . . . . . . . . . .                 ",
"        . . > l 3.n.(.(.(.(.n.3.l : : l 3.n.(.(.(.(.n.3.l : > l 3.n.(.(.(.(.(.(.(.(.n.3.l > o + - : > > > > > :                 ",
"        . . > l 3.n.(.(.(.(.n.3.l > : l 3.n.(.(.(.(.n.3.l > > l 3.n.(.(.(.(.(.(.(.(.n.3.l > + 5 9 j l l l l k h 9               ",
"        . . > l 3.n.(.(.(.(.n.3.l > > l 3.n.(.(.(.(.n.3.l > > l 3.n.(.(.(.(.(.(.(.(.n.3.l > - 9 z N 3.3.3.3.,.m h : .           ",
"        . . > l 3.n.(.(.(.(.n.3.l > > l 3.M.(.(.(.(.n.3.l : > l 3.n.(.(.(.(.(.(.(.(.n.3.l > : j >.q.n.n.n.n.q.,.k > . .         ",
"        . . > l 3.n./.~.E.T.z.2.c 4 7 c 2.z.T.E.~.Q.V.6.n 9 9 m 6.n.(.(.(.(.(.(.(.(.n.3.l > > l 3.n.(.(.(.(.n.3.l > . .         ",
"        . . > l 3.n.~.Y.v.x.t.O.^ d d ^ O.t.x.v.D.~.S.q.1.n m 1.q.S.(.(.(.(.(.(.(.(.n.3.l > > l 3.n.(.(.(.(.n.3.l > . .         ",
"        . . > l 3.n.E.v.p.:.#.] F S S F +.#.:.p.v.E.W.b.0.6.6.0.b.W.(.(.(.(.(.(.(.(.n.3.l > > l 3.n.(.(.(.(.n.3.l > . .         ",
"        . . > l 3.n.T.x.:.@.T I J H H J I I @.:.x.T.Q.W.S.V.V.S.W.Q.(.(.(.(.(.(.(.(.n.3.l > > l 3.n.(.(.(.(.n.3.l > . .         ",
"        . . > l 3.n.T.x.:.@.R X.X.X.T Y I K T $.k.Y.(.(.(.(.(.(.(.(.(.(.(.(.(.(.(.(.n.6.m 0 9 z <.q.V.S.W.Q.n.3.l > . .         ",
"        . . > l 3.n.E.v.p.:.:.=.:.=.=.+.[ L ' &.k.H.(.(.(.(.(.(.(.(.(.(.(.(.(.(.(.(.S.q.1.m z M N <.6.q.b.W.n.3.l > . .         ",
"        . . > l 3.M.~.D.v.x.l.k.l.l.i.*.} G ` e.g.H.(.(.(.(.(.(.(.(.(.(.(.(.(.(.(.(.W.b.q.6.<.N M z m 1.0.S.n.3.k > . .         ",
"        . . > l 3.M./.~.R.T.Y.Y.T.T.m.r.| ! !  .f.J.(.(.(.(.(.(.(.(.(.(.(.(.(.(.(.(.Q.W.S.n.q.<.z 9 9 m 6.V.n.3.l > . .         ",
"        . . > l 3.M.(.(.(.(.(.(.(.(.L.h.e.~ ` e.h.L.(.(.(.(.(.(.(.(.(.(.(.(.(.(.(.(.(.(.(.(.V.6.m 9 9 m 6.V.n.3.l > . .         ",
"        . . > l 3.n.(.(.(.(.(.(.(.(.R.m.s.e.e.s.z.R.(.(.(.(.(.(.(.(.(.(.(.(.(.(.(.(.(.(.(.(.S.q.1.m m 1.q.S.n.3.l > . .         ",
"        . . > l 3.n.(.(.(.(.(.(.(.(.~.F.m.h.h.m.K.!.(.(.(.(.(.(.(.(.(.(.(.(.(.(.(.(.(.(.(.(.W.b.0.6.6.0.b.S.n.3.l > . .         ",
"        . . > l 3.n.(.(.(.(.(.(.(.(./.~.R.L.L.R.!./.(.(.(.(.(.(.(.(.(.(.(.(.(.(.(.(.(.(.(.(.Q.W.S.V.V.S.W.(.n.3.l > . .         ",
"        . . > l 3.n.(.(.(.(.(.(.(.(./.(.(.(.(.(.(.(.(.(.(.(.(.(.(.(.(.(.(.(.(.(.(.(.(.(.(.(.(.(.(.(.(.(.(.(.n.3.l > . .         ",
"        . . > l 3.n.(.(.(.(.(.(.(.(.(.(.(.(.(.(.(.(.(.(.(.(.(.(.(.(.(.(.(.(.(.(.(.(.(.(.(.(.(.(.(.(.(.(.(.(.n.3.l > . .         ",
"        . . > l 3.n.(.(.(.(.(.(.(.(.(.(.(.(.(.(.(.(.(.(.(.(.(.(.(.(.(.(.(.(.(.(.(.(.(.(.(.(.(.(.(.(.(.(.(.(.n.3.l > . .         ",
"        . . > l 3.n.(.(.(.(.(.(.(.(.(.(.(.(.(.(.(.(.(.(.(.(.(.(.(.(.(.(.(.(.(.(.(.(.(.(.(.(.(.(.(.(.(.(.(.(.n.3.l > . .         ",
"        . . > l 3.n.(.(.(.(.(.(.(.(.(.(.(.(.(.(.(.(.(.(.(.(.(.(.(.(.(.(.(.(.(.(.(.(.(.(.(.(.(.(.(.(.(.W.S.V.q.,.k > . .         ",
"        . . > l 3.n.(.(.(.(.(.(.(.(.(.(.(.(.(.(.(.(.(.(.(.(.(.(.(.(.(.(.(.(.(.(.(.(.(.(.(.(.(.(.(.(.S.b.0.6.,.m h > .           ",
"        . . > l 3.M.(.(.(.(.(.(.(.(.(.(.(.(.(.(.(.(.(.(.(.(.(.(.(.(.(.(.(.(.(.(.(.(.(.(.(.(.(.(.(.(.S.q.1.m k h 9               ",
"        . . > l 3.M.(.(.(.(.(.(.(.(.(.(.(.(.(.(.(.(.(.(.(.(.(.(.(.(.(.(.(.(.(.(.(.(.(.(.(.(.(.(.(.(.V.6.m 9 > :                 ",
"        . . > l 3.M.(.(.(.(.(.(.(.(.(.(.(.(.(.(.(.(.(.(.(.(.(.(.(.(.(.(.(.(.(.(.(.(.(.(.(.(.(.(.(.(.n.3.l > . .                 ",
"        . . > l 3.M.(.(.(.(.(.(.(.(.(.(.(.(.(.(.(.(.(.(.(.(.(.(.(.(.(.(.(.(.(.(.(.(.(.(.(.(.(.(.(.(.n.3.l > . .                 ",
"        . . > l 3.n.(.(.(.(.(.(.(.(.(.(.(.(.(.(.(.(.(.(.(.(.(.(.(.(.(.(.(.(.(.(.(.(.(.(.(.(.(.(.(.(.n.3.l > . .                 ",
"        . . > l 3.n.(./.(.(.(.(.(.(.(.(.(.(.(.(.(.(.(.(.(.(.(.(.(.(.(.(.(.(.(.(.(.(.(.(.(.(.(.(.(.(.n.3.k > . .                 ",
"        . . > k ,.w.V.S.S.(.(.(.(.(.(.(.(.(.Q.W.S.V.n.n.n.n.V.S.W.Q.(.(.(.(.(.(.(.(.Q.W.S.V.n.n.n.n.q.,.k > . .                 ",
"          . : h m ,.6.0.n.W.(.(.(.(.(.(.(.(.W.b.q.6.3.3.3.3.6.0.b.W.(.(.(.(.(.(.(.(.W.b.0.6.3.3.3.3.,.m h > .                   ",
"              9 h k m 1.q.S.(.(.(.(.(.(.(.(.S.q.1.m l l l l m 1.0.S.(.(.(.(.(.(.(.(.S.0.1.m l l k l k h 9                       ",
"                : : 0 m 6.V.(.(.(.(.(.(.(.(.N.6.m 9 > > > > 9 m 6.V.(.(.(.(.(.(.(.(.V.6.m 0 > > > > > >                         ",
"                . . : k ,.w.n.B.A.I.I.A.B.n.q.,.k : . . . . > k ,.q.V.B.A.I.I.A.B.M.q.,.k > . . . . . .                         ",
"                  . : h m ,.4.9.y.u.u.y.9.5.,.m h : . . . . : h m ,.5.9.y.u.u.y.9.5.,.m h : . . . . .                           ",
"                      0 h k b ) O.$.$.o.) b k h 9             0 h k b ) o.$.$.o.) b k h 0                                       ",
"                        : > 7 g D P P D g 7 > :                 : : 7 g D P P D g 7 > :                                         ",
"                        . . & y a A A a u * . .                 . . * y a A A a u * . .                                         ",
"                        . . $ 1 i a C p t * .                   . . $ < i a C p t * .                                           ",
"                        . . O = < y u t 1                       . . O = 1 y u t 1                                               ",
"                        . . X O $ * * *                         . . . O $ * * *                                                 ",
"                        . . . . . . . .                         . . . . . . . .                                                 ",
"                        . . . . . . . .                         . . . . . . . .                                                 "
};
