/* XPM */
static char *c4dfbb90220f4c36b0ebf47a0395c755eDA1300DEiCnDrXF[] = {
/* columns rows colors chars-per-pixel */
"64 64 2 1 ",
"  c #ACDF9A",
". c #C1E5A5",
/* pixels */
"      ........          ........      ........          ........",
"      ........          ........      ........          ........",
"        ........          ......        ........          ......",
"        ........          ......        ........          ......",
"          ........          ....          ........          ....",
"          ........          ....          ........          ....",
"..          ........          ....          ........          ..",
"..          ........          ....          ........          ..",
"....          ........          ....          ........          ",
"....          ........          ....          ........          ",
"......          ........        ......          ........        ",
"......          ........        ......          ........        ",
"........          ........      ........          ........      ",
"........          ........      ........          ........      ",
"  ........          ........      ........          ........    ",
"  ........          ........      ........          ........    ",
"    ........          ........      ........          ........  ",
"    ........          ........      ........          ........  ",
"      ........          ........      ........          ........",
"      ........          ........      ........          ........",
"        ........          ......        ........          ......",
"        ........          ......        ........          ......",
"          ........          ....          ........          ....",
"          ........          ....          ........          ....",
"..          ........          ....          ........          ..",
"..          ........          ....          ........          ..",
"....          ........          ....          ........          ",
"....          ........          ....          ........          ",
"......          ........        ......          ........        ",
"......          ........        ......          ........        ",
"........          ........      ........          ........      ",
"........          ........      ........          ........      ",
"      ........          ........      ........          ........",
"      ........          ........      ........          ........",
"        ........          ......        ........          ......",
"        ........          ......        ........          ......",
"          ........          ....          ........          ....",
"          ........          ....          ........          ....",
"..          ........          ....          ........          ..",
"..          ........          ....          ........          ..",
"....          ........          ....          ........          ",
"....          ........          ....          ........          ",
"......          ........        ......          ........        ",
"......          ........        ......          ........        ",
"........          ........      ........          ........      ",
"........          ........      ........          ........      ",
"  ........          ........      ........          ........    ",
"  ........          ........      ........          ........    ",
"    ........          ........      ........          ........  ",
"    ........          ........      ........          ........  ",
"      ........          ........      ........          ........",
"      ........          ........      ........          ........",
"        ........          ......        ........          ......",
"        ........          ......        ........          ......",
"          ........          ....          ........          ....",
"          ........          ....          ........          ....",
"..          ........          ....          ........          ..",
"..          ........          ....          ........          ..",
"....          ........          ....          ........          ",
"....          ........          ....          ........          ",
"......          ........        ......          ........        ",
"......          ........        ......          ........        ",
"........          ........      ........          ........      ",
"........          ........      ........          ........      "
};
