/* XPM */
static char *house1711109471[] = {
/* columns rows colors chars-per-pixel */
"64 64 194 2 ",
"   c None",
".  c #171717",
"X  c #191818",
"o  c #191717",
"O  c #241A1A",
"+  c #2B1D1D",
"@  c #381E1E",
"#  c #2D201F",
"$  c #2E2020",
"%  c #2B2C2C",
"&  c #252525",
"*  c #3D2424",
"=  c #342626",
"-  c #4D2525",
";  c #452121",
":  c #542B2B",
">  c #582F2E",
",  c #5C3231",
"<  c #4A3C3C",
"1  c #612F2F",
"2  c #642727",
"3  c #732D2D",
"4  c #623131",
"5  c #643A3A",
"6  c #763737",
"7  c #7A3535",
"8  c #7E3939",
"9  c #464646",
"0  c #59534D",
"q  c #5B5043",
"w  c #535556",
"e  c #565758",
"r  c #5B5B5C",
"t  c #595757",
"y  c #524C45",
"u  c #76494A",
"i  c #635756",
"p  c #765C5C",
"a  c #7E674A",
"s  c #73624E",
"d  c #796956",
"f  c #6B6766",
"g  c #776C6C",
"h  c #75726E",
"j  c #797269",
"k  c #737476",
"l  c #7E7E7E",
"z  c #797878",
"x  c #6E6F71",
"c  c #833B3B",
"v  c #953333",
"b  c #903B3B",
"n  c #9E3C3C",
"m  c #983635",
"M  c #832D2D",
"N  c #A73737",
"B  c #A73C3C",
"V  c #AC3D3D",
"C  c #A2403F",
"Z  c #874342",
"A  c #8A4443",
"S  c #974242",
"D  c #984747",
"F  c #885656",
"G  c #965050",
"H  c #9B5151",
"J  c #9C5857",
"K  c #935C5C",
"L  c #9F5B5B",
"P  c #A64545",
"I  c #AE4040",
"U  c #AC4B4B",
"Y  c #A44F4F",
"T  c #B34444",
"R  c #B94847",
"E  c #B54949",
"W  c #B94B4B",
"Q  c #A65050",
"!  c #A45D5D",
"~  c #AA5758",
"^  c #B35252",
"/  c #BE5251",
"(  c #BB5A5A",
")  c #B35E5E",
"_  c #95694E",
"`  c #9B6E4F",
"'  c #966E54",
"]  c #967751",
"[  c #97705A",
"{  c #98725C",
"}  c #967B58",
"|  c #A07E53",
" . c #AB7C54",
".. c #A27452",
"X. c #8C6262",
"o. c #8C6B6B",
"O. c #856060",
"+. c #946B6B",
"@. c #976666",
"#. c #897767",
"$. c #967867",
"%. c #837575",
"&. c #847A7A",
"*. c #8B7776",
"=. c #937A7A",
"-. c #9E7576",
";. c #A46262",
":. c #AE6A6B",
">. c #AD6264",
",. c #B26E6F",
"<. c #AF6E70",
"1. c #B67273",
"2. c #BA7677",
"3. c #BC7879",
"4. c #AF7173",
"5. c #C35352",
"6. c #C85857",
"7. c #CC5C5A",
"8. c #C65C5B",
"9. c #D1605F",
"0. c #9C805E",
"q. c #AE8757",
"w. c #B68658",
"e. c #BB8B59",
"r. c #BD915B",
"t. c #8A827A",
"y. c #9E8374",
"u. c #958678",
"i. c #9A8366",
"p. c #BC9566",
"a. c #A3897A",
"s. c #A28979",
"d. c #A4927A",
"f. c #BA9F7D",
"g. c #A88C6A",
"h. c #C2955C",
"j. c #C7985E",
"k. c #CB9A5E",
"l. c #D19E60",
"z. c #C19A6B",
"x. c #D3A061",
"c. c #7D7F82",
"v. c #7F8183",
"b. c #858585",
"n. c #87898C",
"m. c #898B8D",
"M. c #898886",
"N. c #928B8C",
"B. c #998B8A",
"V. c #929394",
"C. c #9B9897",
"Z. c #939090",
"A. c #A88883",
"S. c #B38A8D",
"D. c #B58587",
"F. c #A4958D",
"G. c #A99A88",
"H. c #B68E90",
"J. c #A79892",
"K. c #AB9D95",
"L. c #A79D9B",
"P. c #BA9295",
"I. c #BEA382",
"U. c #AEA39A",
"Y. c #B5A79B",
"T. c #9C9EA1",
"R. c #A19EA0",
"E. c #9FA1A3",
"W. c #A2A4A5",
"Q. c #ABA8A7",
"!. c #A4A6A8",
"~. c #A6A9AD",
"^. c #AAABAD",
"/. c #B2ADAD",
"(. c #B6A7A4",
"). c #ADAFB2",
"_. c #B9AEB1",
"`. c #AEB1B4",
"'. c #B3B3B5",
"]. c #BAB1B3",
"[. c #B3B6B9",
"{. c #B6B9BC",
"}. c #B9BABC",
"|. c #BAB8B7",
" X c #C3A887",
".X c #C0BEBE",
"XX c #C5B6A4",
"oX c #C2C0BD",
"OX c #BBBEC2",
"+X c #BDC0C4",
"@X c #C2C5C9",
"#X c #C7CACD",
"$X c #C7C6C6",
"%X c #CCCFD3",
/* pixels */
"                                        X X . . . . . . . . . . X . . X . . . X . . . .                                         ",
"                                        . X . X X . X . X X . . . . X X . . . . . X . .                                         ",
"                                        & + + + $ $ + + + + + + + + + + $ $ + + $ + + +                                         ",
"                                      * - : : : : : : : : > : > : > : > : : : : : : : - *                                       ",
"                          X . . . . + ; 4 6 8 8 8 8 8 8 8 8 8 8 8 8 8 8 8 8 8 8 8 8 6 1 - + . . X X X                           ",
"                        X . . . . . + : 6 S P P P Y P P P Y P P Y P P P P P P Y P U S 6 : + . o . X X .                         ",
"                        $ + + + $ $ * 1 c P W W W W W W W W W W W W W W W W W W W W P 8 1 * + $ + $ + &                         ",
"                      * - : : : : : 1 7 b P T T T T T T T T T T T T T T T T T T T T B b 6 1 > : : : : - *                       ",
"          X . . . . # - 4 6 8 8 8 8 c b n B V V I V V V V I V V V I V V V I V V V V V n b c 8 8 8 c 6 1 - + . . X X X           ",
"        X X . X . . + : 6 S P P P U P P B N N N N N N N N N N N N N N N N N N N N N N B P P P P P P S 6 : + . . . X X X         ",
"        + # + + + $ * 4 Z ^ ( >.( ( ( / U U P V V N N N N N N N N N N N N N N N N N B I T T W W W W P c , * $ $ + + + &         ",
"      = - : : > : : 5 u K 1.3.3.3.2.2.1.<.<.>.~ U P V I V V V V V I V V V V I V V V I I T T T T T T C b 7 1 : : : : : - *       ",
". . # - 4 6 8 8 8 c Z K -.D.P.P.P.P.P.H.S.D.D.1.) E T T T T T T T T T T T T T T T T T T V V V V V V B n b c 8 8 8 8 6 1 - + . . ",
". . + : 6 S P P P P ~ ,.S.(._..X_._.].OX_._.(.S.1.( W W W W W W W W W W W W W E W W E T I N N N N N B B P P P P P P S 6 : # . . ",
". . + : 7 P W W W W ( 2.P._.}.{.OX~.).).OXOX_.P.2.( W W W W W W W W W W W W W W W W E T I N N N N N B V T E W W W W P 8 : + . . ",
". . O : 7 n T T T T ^ 1.P._.{.^.T.m.V.T.W.OX_.P.1.^ T T T T T T T T T T T T T T T T T I I I V I V V V I T I T T T E n 6 - + . . ",
". X + - 3 m I V V V U ,.H._.`.T.n.k c.v.T.`._.H.,.U I V V I V V I V V V V I V V I I V I T T T T T T T T I I V V V V m 3 : + o o ",
". . O - 3 v N N N N U :.S._.).V.k e e k V.)._.S.<.P N N N N N N N N N N N N N N N N N I T E W W W W E T I B N N N N v 3 - + . . ",
". X O - 3 v N N N N U :.S._.).m.k e e k m.~._.S.:.U N N N N N N N N N N N N N N N N N I I R W W W E R T I N N N N N v 3 - + . . ",
". . # - 3 m I V I V U ,.H._.OXT.n.k k n.T.OX_.H.<.U V I V V V I V V V I V V V V V V I I I T T T T T T T I I V V V I m 3 - O . . ",
". o O : 7 n T T T T ^ 1.P._.{.~.T.V.V.T.~.OX_.S.1.^ T T T T T T T T T T T T T T T T T I I I V V V V I I I T T T T T n 7 - + o o ",
". o + : 8 P W W W W ( 2.P._.OX{.OX).).`.OXOX_.P.1.( W W W W W W W W W W W W W W W W R T I B N N N N B V T R R W W W P 7 : + o . ",
". . + : 8 P W W W W ( 1.H./.[.[.).OXOX`.`.OX/.S.1.( W E W W W W W W W W E W W W W W E T I N N N N N B I T R W W W W P 8 : + . . ",
". o + - 7 n T T T T U :.A.L.!.~.E.T.!.!.W.R.R.D.:.^ T T T T T T T T T T T T T T T T T I I V I V V V I I I T T T T T B 7 - + . . ",
". . + - 3 m I V I V U ! -.N.C.V.V.V.V.V.C.V.B.-.;.P V V V V V I V V V V I V V V V V I V T T T T T T T I I I V V V V m 3 : + o o ",
". . O - 3 v N N N N C J +.=.b.b.n.b.n.n.b.b.&.+.J P N N N N N N N N N N N N N N N N N T T T W W W W T T I N N N N N v 3 - O . . ",
"o o + - 3 v N N N N C G X.%.c.&.c.l l &.&.&.o.X.H C N N N N N N N N N N N N N N N N N V T T W W W W R T I N N N N N v 3 - + . . ",
"o o + - 3 m V V V I P J X.%.l c.c.c.&.%.*.+.@.L Y I I V I V V V V I V V V V V I I V I V T T T T T T T T I I V V V V m 3 - O . . ",
". . + - 7 C T T T T U L @.%.c.&.c.&.&.*.+.;.~ ~ ^ U T T T T T T T T T T T T T T T T T T I V V V V V V T I T T T T T C 7 : + . . ",
". . + : 8 P W W W W ^ ! +.%.c.c.l c.&.+.@.) ^ ^ W W W W W E W E W W W E W W W W W W T T I V N N N N N V T E W W W W P 7 : + . . ",
". . + : 8 P E W W W ^ ! @.*.%.&.%.*.*.@.) ^ 5.5./ / / / / / 5./ / 5.5./ / / 5.5./ / W R T N N N N N V V T E W W W W P 7 : + . . ",
". . + - 7 n T T T T U Q ! @.+.+.+.+.@.>.) ( 5.6.5.6.6.5.6.5.5.6.5.5.6.5.5.6.5.5.6.6.5.W T T V V V V V T I T T T T T C 3 : + o . ",
". . + - 7 m V V V C P U Q ! ;.;.;.;.;.) 8.6.7.7.7.7.6.7.7.7.7.7.7.7.6.7.7.7.7.7.7.7.6.5.5.C T T T T T T V V V C V V m 3 - + o o ",
"o . + - 3 m N N N N N I E ^ ^ ^ ^ ^ / 5.7.7.9.9.9.9.9.9.7.9.9.9.9.9.9.9.9.9.9.9.9.9.7.6.5.5.R R W W R T T N N N N V v 3 - + o o ",
". . O - 3 v N N N N N T T W 5./ 5./ 5.5.6.7.7.7.7.7.7.7.7.7.7.7.7.7.7.6.7.6.7.7.6.7.7.6.5.5.5.5./ 5.W R T N N N N N v 3 - O . . ",
". . + - 3 m V V V V T T / 5.5.6.5.6.5.5.5.5.5.5.5.5.5.5.5.5.5.5.5.5.5.5.5.5.5.5.5.5.5.5.5.5.5.5.5.5.5.W E I V V V V n 3 - + . . ",
". . + - 6 n T T R T R W 5.6.7.6.7.7.6.5.5.C R R C C R R R R R R T T R R T T R T R T R R 5.6.7.6.7.7.6.5.W R T T T T n 6 - + o o ",
". . + : 8 P E W W W 5.5.6.7.9.9.9.9.7./ 5.C N N V V V V N N N N V V N N N V N V N B C 5.5.7.9.9.9.9.7.6.5.W W W W W P 8 : + o o ",
"o o + > 8 U / 5.W 5.5.5.6.7.7.7.7.7.8./ E C n n B C N N n C n C n n n n n n B n n B P E / 6.7.7.7.7.7.5.6.5.5.5./ / U 8 > + o o ",
". X + > Z E 5.5.6.5.5.5.5.5.5.5.5.5.W ^ Q G G G G G G H G G G G G H G G H G G H G G G Q U / 5.5.5.5.5.5.5.5.5.5.5.5.E c > + . . ",
". . $ , A ^ 6.7.6.7.6.5.W R R T C 5.E Q J K X.X.X.X.X.X.X.X.X.X.X.X.X.X.X.X.X.X.X.X.K H Q E T R R R R W 5.5.7.7.7.7.^ Z > $ o o ",
". . $ , A ( 9.9.9.9.7.5.5.C N N N N C G K #.%.z %.&.%.%.%.%.%.z %.%.%.%.%.z %.%.%.%.o.X.H B V N N V C R 5.7.9.9.9.9.( A , $ . o ",
". X $ , Z / 7.7.7.7.6.W T P B n B B D K o.&.b.b.v.v.b.v.b.b.M.b.b.n.b.b.b.b.b.b.v.b.&.+.K D n n B B C R / 6.7.7.7.7.^ A , # . . ",
". . + : c U 5.5.5.5./ ^ U G G G G G J @.=.N.Z.Z.V.V.V.V.V.V.V.C.C.V.V.V.V.V.Z.Z.V.Z.N.=.@.K G G G G G Q ^ / 5.5.5.5.U c > + . . ",
"o o + - 7 C T R T T E Q J K X.X.X.X.+.=.N.C.T.T.T.T.E.E.E.!.!.!.!.!.R.!.T.T.T.T.T.T.C.B.=.o.X.X.X.X.K J Q E T T T R B 7 : + o o ",
"o o + - 3 v V N B N P H K #.%.%.%.%.&.M.C.R.^.^.~.~.^.`.`.[.[.[.`.OX[.).).).~.^.~.~.R.C.N.*.%.%.%.%.o.X.H C N V V N v 3 - O o o ",
"o . O ; 2 M v v m n S G O.h k z &.t.M.Z.V.T.R.~.^.`.[.[.}.OXOX}.[.].]._.).^.Q.Q.Q.Q.W.C.m.t.l &.b.M.&.o.K S B m v v M 2 ; O . . ",
". . O @ - 2 3 8 Z D F F p f f j t.i.y.u.M.b.m.V.E.`.[.{.OXOX}.'.(.R.K.K.J.F.F.F.F.F.F.u.=.*.*.t.M.V.Z.=.@.K G Z 8 3 2 - @ O . . ",
". . o + @ ; : 5 u F K p i t t d 0.0.g.i.j f x b.C.).{.{.OXOX[.Y.U.A.s.y.y.y.-.s.y.y.y.$.$.#.o.u.F.L.R.B.=.+.F u 5 : ; @ + O . . ",
"o . o O O O = < 0 g g f t 9 y s 0.q.r.0.s 0 w x V.^.OXOXOXOX'.U.d.$.[ [ { [ [ { [ [ [ [ _ ' $.a.J.^.).R.Z.&.g t < = O O X X . . ",
". . . . . . & 9 r l c.k r y q _ q.r.r.0.a q y j Z.).OXOXOXOX`.K.s.{ _ _ ` ` ` ` ` ` _ _ _ _ $.a.U.].{.).C.V.z r 9 & X X . . . . ",
". . . . . . & 9 x n.Z.t.#.s s ] q.j.j.q.0.a d t.V.^.{.{.{.{./.U.s.[ _ ` .. . . . . . ..._ _ ..a.U.}.OX[.).W.m.x 9 & . . . . . . ",
"      . X . % w z T.Y.G.d.0.0.q.r.l.j.r.q.0.0.d.G.`.[.[.[.[./.G.y.[ _ .. .w.e.e.e.e.w. ..._ { d.Y..X@X@X}.'.T.z w % . . .       ",
"        . . % r b.`.oXXXf.z.h.j.j.l.l.l.k.r.p.f.Y./.`.[.[.`.^.C.y.[ `  .w.h.k.k.j.k.h.w. .` { A.(.$X%X#X#X@X`.b.e % . .         ",
"        . . % r m.{.$XoX Xp.h.j.l.l.l.j.j.h.r.f.Y./.[.`.`.`.Q.G.y.[ `  .e.k.x.x.x.l.k.e. .` { A.Y.$X%X%X%X%X{.n.r % . .         ",
"        . . % r b.[.oXY.d.0.q.q.r.k.j.r.q.q.0.d.G./.[.[.[.[./.G.y.{ `  .e.k.x.x.x.l.k.e. ...{ d.(.}.#X#X#X#X'.n.r % . .         ",
"        . . % e v.`.[.R.t.d a ] q.k.j.q.] a d t.C.^.{.{.{.{./.J.s.[ `  .e.k.l.x.x.x.k.e. .` { a.U.}.@X@X@X@X).b.e % . .         ",
"        . . % w v.^.`.V.j 0 q a 0.j.h.q.a q 0 h Z.).+X{.}.}.].K.s.{ `  .e.k.x.x.x.x.k.e. .` { a.K.|.+X+X+X+X~.v.e % . .         ",
"        . . % w v.).`.V.k e 0 d 0.z.r.0.s 0 w k V.).{.+X+X+X'.U.s.[ `  .e.k.x.x.x.x.k.e. .` { a.K.].OXOXOXOX~.c.e % . .         ",
"        . . % w v.E.`.E.m.z j t.d.I.I.d.t.j k M.T.`.+XOXOX+X].K.s.[ `  .e.k.x.x.x.l.k.e. .` { a.K.'.OXOXOXOX~.c.e % . .         ",
"        . . % w c.~.{.^.T.V.Z.C.U.Y.XXU.C.m.V.E.^.{.+X+XOXOX'.K.a.{ `  .e.k.l.x.x.x.k.e. .` [ s.K.'.+X+X+XOX~.c.w % . .         ",
"        . . % w c.~.OX}.`.`.^.'.|.|.|.].'.).).`.[.}.+XOXOX+X'.K.a.{ `  .e.k.x.x.x.x.k.e. .` { s.K.].OXOXOXOX~.v.w % . .         ",
"        . . % w c.~.OXOXOXOXOXOXOXOX+XOX+XOXOXOX+XOXOXOXOXOX].K.a.{ `  .e.k.x.x.x.x.k.e. .` { s.U.].OXOXOXOX~.c.w % . .         ",
"        . . % w c.~.OXOX+XOXOXOXOXOXOXOXOXOXOXOXOXOXOXOXOXOX].K.s.{ `  .e.k.x.x.x.x.k.e. .` [ s.K.'.OXOXOXOX~.c.w % . .         "
};
