/* XPM */
static char *chick_overlay1718870561[] = {
/* columns rows colors chars-per-pixel */
"64 64 195 2 ",
"   c #2B1D16",
".  c #2B1E19",
"X  c #2E211B",
"o  c #3C2616",
"O  c #332319",
"+  c #3B2B1C",
"@  c #382E21",
"#  c #343327",
"$  c #39342A",
"%  c #3B3829",
"&  c #462E1B",
"*  c #47341D",
"=  c #4A381F",
"-  c #5A3B1B",
";  c #623E18",
":  c #4A3923",
">  c #433C2A",
",  c #543B23",
"<  c #543E2B",
"1  c #3D4030",
"2  c #7C511F",
"3  c #4A432D",
"4  c #564428",
"5  c #5E502E",
"6  c #434434",
"7  c #484A37",
"8  c #544233",
"9  c #534C34",
"0  c #5E4D37",
"q  c #544438",
"w  c #4A523B",
"e  c #52543E",
"r  c #58583B",
"t  c #604525",
"y  c #644B27",
"u  c #6A542A",
"i  c #795429",
"p  c #745B2D",
"a  c #665837",
"s  c #755E32",
"d  c #7A5E34",
"f  c #69633D",
"g  c #77663A",
"h  c #525C43",
"j  c #595F45",
"k  c #536045",
"l  c #5B6749",
"z  c #5C6B4C",
"x  c #5F7050",
"c  c #686542",
"v  c #646B4B",
"b  c #716B44",
"n  c #6C724E",
"m  c #787141",
"M  c #74724A",
"N  c #646D51",
"B  c #637654",
"V  c #6A7650",
"C  c #687B55",
"Z  c #6E7B5B",
"A  c #747C53",
"S  c #727D5C",
"D  c #88541A",
"F  c #915A1A",
"G  c #9D631D",
"H  c #B06D1C",
"J  c #815D30",
"K  c #876126",
"L  c #826433",
"P  c #8A6736",
"I  c #816C36",
"U  c #8C6A3A",
"Y  c #87733A",
"T  c #95713A",
"R  c #9A773A",
"E  c #A97027",
"W  c #C67C20",
"Q  c #897547",
"!  c #927645",
"~  c #8F7A5A",
"^  c #A87D40",
"/  c #8F7F63",
"(  c #6C825C",
")  c #72855E",
"_  c #788259",
"`  c #768461",
"'  c #7C8762",
"]  c #738C62",
"[  c #7B8D65",
"{  c #759066",
"}  c #7B9769",
"|  c #7C9A6C",
" . c #99813F",
".. c #A5843E",
"X. c #B28A38",
"o. c #D2811E",
"O. c #C98227",
"+. c #DB8924",
"@. c #D28F2C",
"#. c #E89629",
"$. c #E19837",
"%. c #F1A02E",
"&. c #E7A83A",
"*. c #F3AB39",
"=. c #958746",
"-. c #9C8944",
";. c #A88943",
":. c #B18843",
">. c #BB8D45",
",. c #A6944A",
"<. c #BB9847",
"1. c #B49D4C",
"2. c #B7A24D",
"3. c #BCA44E",
"4. c #BDA850",
"5. c #8F8064",
"6. c #85956C",
"7. c #8A9D73",
"8. c #AA9A6B",
"9. c #84A16F",
"0. c #82A272",
"q. c #87AB77",
"w. c #8AAE7A",
"e. c #91A679",
"r. c #94AB7D",
"t. c #8DB37D",
"y. c #90B67F",
"u. c #C8974A",
"i. c #D39B4B",
"p. c #D1AB48",
"a. c #C6A55A",
"s. c #DAAC52",
"d. c #CAB456",
"f. c #D4B956",
"g. c #ECAF47",
"h. c #F8B94A",
"j. c #ECB957",
"k. c #D3B169",
"l. c #CAAD75",
"z. c #C9B57C",
"x. c #DBC65D",
"c. c #F2C14C",
"v. c #EAC75D",
"b. c #E4CA5F",
"n. c #F9C958",
"m. c #F8D25E",
"M. c #DDC968",
"N. c #ECC567",
"B. c #F7C562",
"V. c #E6D061",
"C. c #ECD564",
"Z. c #FDD664",
"A. c #F5DD67",
"S. c #FEDD65",
"D. c #FDDA69",
"F. c #F3CB79",
"G. c #FFDC79",
"H. c #F7E069",
"J. c #FEE56B",
"K. c #FFE86C",
"L. c #FEE475",
"P. c #97AF80",
"I. c #9AB281",
"U. c #94BC83",
"Y. c #A0BA87",
"T. c #A2BD8A",
"R. c #C9B789",
"E. c #CABB90",
"W. c #97C186",
"Q. c #98C287",
"!. c #99C388",
"~. c #9ECB8D",
"^. c #A6C18C",
"/. c #A0CE8F",
"(. c #AAC790",
"). c #A1CF90",
"_. c #ACCB93",
"`. c #A5D493",
"'. c #A7D895",
"]. c #A9DA97",
"[. c #ACDF9A",
"{. c #B1D096",
"}. c #B4D499",
"|. c #B7D99D",
" X c #B9DA9D",
".X c #BCDFA1",
"XX c #BEE2A3",
"oX c #D2C28F",
"OX c #E9D18D",
"+X c #FEE488",
"@X c #F9E69C",
"#X c #E7D8A3",
"$X c #F3DFA0",
"%X c #C1E5A5",
"&X c #F0E0A7",
/* pixels */
"[.[.[.[.[.[.%X%X%X%X%X%X%X%X[.[.[.[.[.[.[.[.[.[.%X%X%X%X%X%X%X%X[.[.[.[.[.[.%X%X%X%X%X%X%X%X[.[.[.[.[.[.[.[.[.[.XXXX%X%X%X%X%X%X",
"[.[.[.[.[.[.%X%X%X%X%X%X%X%X[.[.[.[.[.[.[.[.[.[.%X%X%X%X%X%X%X%X[.[.[.[.[.[.%X%X%X%X%X%X%X%X[.[.[.[.[.[.[.[.[.[.XXXX%X%X%X%X%X%X",
"[.[.[.[.[.[.[.[.%X%X%X%X%X%X%X%X[.[.[.[.[.[.[.[.[.[.%X%X%X%X%X%X[.[.[.[.[.[.[.[.%X%X%X%X%X%X%X%X[.[.[.[.[.[.[.[.[.[.%X%X%X%X%X%X",
"[.[.[.[.[.[.[.[.%X%X%X%X%X%X%X%X[.[.[.[.[.[.[.[.[.[.%X%X%X%X%X%X[.[.[.[.[.[.[.[.%X%X%X%X%X%X%X%X[.[.[.[.[.[.[.[.[.[.%X%X%X%X%X%X",
"[.[.[.[.[.[.[.[.[.[.%X%X%X%X%X%X%X%X[.[.[.[.[.[.[.[.[.[.%X%X%X%X[.[.[.[.[.[.[.[.[.[.%X%X%X%X%X%X%X%X[.[.[.[.[.[.[.[.[.[.%X%X%X%X",
"[.[.[.[.[.[.[.[.[.[.%X%X%X%X%X%X%X%X[.[.[.[.[.[.[.[.[.[.%X%X%X%X[.[.[.[.[.[.[.[.[.[.%X%X%X%X%X%X%X%X[.[.[.[.XX[.[.[.[.[.%X%X%X%X",
"%X%X[.[.[.[.[.[.[.[.[.[.%X%X%X%X%X%X%X%X[.[.[.[.[.[.[.[.[.[.%X%X%X%X[.[.[.[.[.[.[.[.[.[.%X%X%X%X%X%X%X%X[.[.[.[.[.[.[.[.[.[.%X%X",
"%X%X[.[.[.[.[.[.[.[.[.[.%X%X%X%X%X%X%X%X[.[.[.[.[.[.[.[.[.[.%X%X%X%X[.[.[.[.[.[.[.[.[.[.%X%X%X%X%X%X%X%X[.[.[.[.[.[.[.[.[.[.%X%X",
"%X%X%X%X[.[.[.[.[.[.[.[.[.[.%X%X%X%X%X%X%X%X[.[.[.[.[.[.[.[.[.[.%X%X%X%X[.[.[.[.[.[.[.[.[.[.%X%X%X%X%X%X%X%X[.[.[.[.[.[.[.[.[.[.",
"%X%X%X%X[.[.[.[.[.[.[.[.[.[.%X%X%X%X%X%X%X%X[.[.[.[.[.[.[.[.[.[.%X%X%X%X[.[.[.[.[.[.[.[.[.[.%X%X%X%X%X%X%X%X[.[.[.[.[.[.[.[.[.[.",
"%X%X%X%X%X%X[.[.[.[.[.[.[.[.[.[.%X%X%X%X%X%X%X%X[.[.[.[.[.[.[.[.%X%X%X%X%X%X[.[.[.[.[.[.[.[.[.[.%X%X%X%X%X%X%X%X[.[.[.[.[.[.[.[.",
"%X%X%X%X%X%X[.[.[.[.[.[.[.[.[.[.%X%X%X%X%X%X%X%X[.[.[.[.[.[.[.[.%X%X%X%X%X%X[.[.[.[.[.[.[.[.[.[.%X%X%X%X%X%X%X%X[.[.[.[.[.[.[.[.",
"%X%X%X%X%X%X%X%X[.[.[.[.[.[.[.[.[.[.%X%X%X%X%X%X%X%X[.[.[.[.[.[.%X%X%X%X%X%X%X%X[.[.[.[.[.[.[.[.[.[.%X%X%X%X%X%X%X%X[.[.[.[.[.[.",
"%X%X%X%X%X%X%X%X[.[.[.[.[.[.[.[.[.[.%X%X%X%X%X%X%X%X[.[.[.[.[.[.%X%X%X%X%X%X%X%X[.[.[.[.[.[.[.[.[.[.%X%X%X%X%X%X%X%X[.[.[.[.[.[.",
"[.[.%X%X%X%X%X%X%X%X[.[.[.[.[.[.[.[.[.[.%X%X%X%X%X%X%X%X[.[.[.[.[.[.%X%X%X%X%X%X%X%X[.[.[.[.[.[.[.[.[.[.%X%X%X%X%X%X%X%X[.[.[.[.",
"[.[.%X%X%X%X%X%X%X%X[.[.[.[.[.[.[.[.[.[.%X%X%X%X%X%X%X%X[.[.[.[.[.[.%X%X%X%X%X%X%X%X[.[.[.[.[.[.[.[.[.[.%X%X%X%X%X%X%X%X[.[.[.[.",
"[.[.[.[.%X%X%X%X%X%X%X%X[.[.[.[.[.[.[.[.[.[.%X%X%X%X%X%X%X%X[.[.[.[.[.[.%X%X%X%X%X%X%X%X[.[.[.[.[.[.[.[.[.[.%X%X%X%X%X%X%X%X[.[.",
"[.[.[.[.%X%X%X%X%X%X%X%X[.[.[.[.[.[.[.[.[.[.%X%X%X%X%X%X%X%X[.[.[.[.[.[.%X%X%X%X%X%X%X%X[.[.[.[.[.[.[.[.[.[.%X%X%X%X%X%X%X%X[.[.",
"[.[.[.[.[.[.%X%X%X%X%X%X%X%X[.[.[.[.[.[.[.[.[.[.%X%X%X%X%X%X%X%X[.[.[.[.[.[.%X%X%X%X%X%X%X%X[.[.[.[.[.[.[.[.[.[.%X%X%X%X%X%X%X%X",
"[.[.[.[.[.[.%X%X%X%X%X%X%X%X[.[.[.[.[.[.[.[.[.[.%X%X%X%X%X%X%X%X[.[.[.[.[.[.%X%X%X%X%X%X%X%X[.[.[.[.[.[.[.[.[.[.%X%X%X%X%X%X%X%X",
"[.[.[.[.[.[.[.[.%X%X%X%X%X%X%X%X[.[.[.[.[.[.[.[.[.[.%X%X%X%X%X%X[.[.[.[.[.[.[.[.%X%X%X%X%X%X%X%X[.[.[.[.[.[.[.[.[.[.%X%X%X%X%X%X",
"[.[.[.[.[.[.[.[.%X%X%X%X%X%X%X%X[.[.[.[.[.[.[.[.[.[.%X%X%X%X%X%X[.[.[.[.[.[.[.[.%X%X%X%X%X%X%X%X[.[.[.[.[.[.[.[.[.[.%X%X%X%X%X%X",
"[.[.[.[.[.[.[.[.[.[.%X%X%X%X%X%X%X%X[.[.[.[.[.[.[.[.[.[.%X%X%X%X[.[.[.[.[.[.[.[.[.[.%X%X%X%X%X%X%X%X[.[.[.[.[.[.[.[.[.[.%X%X%X%X",
"[.[.[.[.[.[.[.[.[.[.%X%X%X%X%X%X%X%X[.[.[.[.[.[.[.[.[.[.%X%X%X%X[.[.[.[.[.[.[.[.[.[.%X%X%X%X%X%X%X%X[.[.[.[.[.[.[.[.[.[.%X%X%X%X",
"%X%X[.[.[.[.[.[.[.[.[.[.%X%X%X%X%X%X%X%X[.[.[.[.[.[.[.[.[.[.XX%X%X%X[.[.[.[.[.[.[.[.[.[.XXXX%X%X%X%X%X%X[.[.[.[.[.[.[.[.[.[.%X%X",
"%X%X[.[.[.[.[.[.[.[.[.[.%X%X%X%X%X%X%X%X[.[.[.[.[.[.[.[.[.[.%X%X%X%X[.[.[.[.[.[.[.[.[.[.XXXX%X%X%X%X%X%X[.[.[.[.[.[.[.[.[.[.%X%X",
"%X%X%X%X[.[.[.[.[.[.[.[.[.[.%X%X%X%X%X%X%X%X[.[.[.[.[.[.[.[.[.[.%X%X%X%X[.[.[.[.[.[.[.[.[.[.%X%X%X%X%X%X%X%X[.[.[.[.[.[.[.[.[.[.",
"%X%X%X%X[.[.[.[.[.[.[.[.[.[.%X%X%X%X%X%X%X%X[.[.[.[.[.[.[.[.[.[.%X%X%X%X[.[.[.[.[.[.[.[.[.[.%X%X%X%X%X%X%X%X[.[.[.[.[.[.[.[.[.[.",
"%X%X%X%X%X%X[.[.[.[.[.[.[.[.[.[.%X%X%X%X%X%X%X%X[.[.[.[.[.[.[.[.%X%X%XXX%X%X[.[.[.[.[.[.[.[.[.[.%X%X%X%X%X%X%X%X[.[.[.[.[.[.[.[.",
"%X%X%X%X%X%X[.[.[.[.[.[.[.[.[.[.%X%X%X%X%X%X%X%X[.[.[.[.[.[.[.[.%X%X%XXX%X%X[.[.[.[.[.[.[.[.[.[.%X%X%X%X%X%X%X%X[.[.[.[.[.[.[.[.",
"%X%X%X%X%X%X%X%X[.[.[.[.[.[.[.[.[.[.%X%X%X%X%XXX X}.`.)./.`.).`.}.}.}.}.}.}.XXXX[.[.[.[.[.[.[.[.[.[.%X%X%X%X%X%X%X%X[.[.[.[.[.[.",
"%X%X%X%X%X%X%X%X[.[.[.[.[.[.[.[.[.[.%X%X%X%X X_.Y.r.7.| | 0.| | e.e.e.e.e.w.I.~.].[.[.[.[.[.[.[.[.[.%X%X%X%X%X%X%X%X[.[.[.[.[.[.",
"[.[.[.[.[.[.%X%X%X%X%X%X%X%X[.[.[.[.[.[.[.[.~.w.6.Z N N N N N N z z z z z z ` 7.^.|.XX%X%X%X[.[.[.[.[.[.[.[.[.[.%X%X%X%X%X%X%X%X",
"[.[.[.[.[.[.%X%X%X%X%X%X%X%X[.[.[.[.[.[.[.].U.} N 7 $ $ $ $ $ $ # # # # # $ h S r.}.XXXX%X%X[.[.[.[.[.[.[.[.[.[.%X%X%X%X%X%X%X%X",
"[.[.[.[.[.[.[.[.%X%X%X%X%X%X%X%X[.[.].'.`.~.w.( e @   . . . X X X . . . . . % l 6.^.}. XXXXXXX%X[.[.[.[.[.[.[.[.[.[.%X%X%X%X%X%X",
"[.[.[.[.[.[.[.[.%X%X%X%X%X%X%X%X[.[.`.!.U.0.[ V a , , , 8 q q q q q q < , , 5 c 5.9.r.^.}..X%X%X[.[.[.[.[.[.[.[.[.[.%X%X%X%X%X%X",
"[.[.[.[.[.[.[.[.[.[.%X%X%X%X%X%X%X%X~.w.{ B N b I J U ! ~ ~ 5.5./ / ~ U ! P J b v v ) 7.T. X%X%X%X%X[.[.[.[.[.[.[.[.[.[.%X%X%X%X",
"[.[.[.[.[.[.[.[.[.[.%X%X%X%X%X%X%X.XU.} z 6 < s ! u.u.l.z.E.E.E.E.E.R.l.a.u.^ ! u 3 e ) r.].%X%X%X%X[.[.[.[.[.[.[.[.[.[.%X%X%X%X",
"%X%X[.[.[.[.[.[.[.[.[.[.%X%X%X%X%XXXT.[ h X & i ^ s.B.F.OX@X&X#X#X#XOXOXF.j.i.T t O # l 7.{.%X%X%X%X%X%X[.[.[.[.[.[.[.[.[.[.%X%X",
"%X%X[.[.[.[.[.[.[.[.[.[.%X%X%X%X%X.XT.` > . O J ^ j.D.F.+X@X$XOXE.R.R.k.N.B.i.R t   O j 6.{.%X%X%X%X%X%X[.[.[.[.[.[.[.[.[.[.%X%X",
"%X%X%X%X[.[.[.[.[.[.[.[.[.[.XX%X%X.XT.` w . o s :.v.D.G.+X+XOXoX8./ ~ a.f.v.s.R 5   X k } !.%X%X%X%X%X%X%X%X[.[.[.[.[.[.[.[.[.[.",
"%X%X%X%X[.[.[.[.[.[.[.[.[.[.XXXX%X.XT.` q . o s 1.v.S.L.L.L.M.2.Q q a ! d.b.f.R y   X k } ~.%X%X%X%X%X%X%X%X[.[.[.[.[.[.[.[.[.[.",
"%X%X%X%X%X%X[.[.[.[.[.[.[.[.[.'..X{.I.` e @ : g 2.V.K.K.K.H.M.,.s : < U 2.x.x. .u o @ l ] U.).`.XXXX%X%X%X%X%X%X[.[.[.[.[.[.[.[.",
"%X%X%X%X%X%X[.[.[.[.[.[.[.[.].~.I.P.6.A f y s -.d.C.K.K.K.J.x.2.Y u s R 3.c.p.X.K ; - f ( | q.y.}.XX%X%X%X%X%X%X[.[.[.[.[.[.[.[.",
"%X%X%X%X%X%X%X%X[.[.[.[.[.].~.w.{ B n m Q  .-.4.x.A.K.K.K.J.C.f.1.;...X.p.*.&.@.H F 2 p f z ( } y.`.XXXX%X%X%X%X%X%X[.[.[.[.[.[.",
"%X%X%X%X%X%X%X%X[.[.[.[.[.].W.} x 1 9 g =.4.x.V.C.H.K.K.K.K.A.C.M.f.f.p.&.*.%.+.+.H H 2 t 3 w ( q./.%X%X%X%X%X%X%X%X[.[.[.[.[.[.",
"[.[.%X%X%X%X%X%X%X%X[.[.[.].W.] h % 3 g ,.d.V.V.A.H.K.K.J.K.K.H.H.A.m.c.*.%.#.#.+.o.H F ; + 1 x | ~.[.[.%X%X%X%X%X%X%X%X[.[.[.[.",
"[.[.%X%X%X%X%X%XXXXX[.[.[.].!.| x w w m =.2.4.x.N.A.S.S.K.K.K.K.J.J.m.n.c.*.#.+.O.H G D 5 3 k ( w.`.[.[.%X%X%X%X%X%X%X%X[.[.[.[.",
"[.[.[.[.%X%X%X%X%X%X%X%X[.[.`.t.| ( V M m Y  .<.s.m.Z.D.S.K.K.K.K.J.H.n.h.h.$.W G D 2 g f V ) 0.W.`.[.[.[.[.%X%X%X%X%X%X%X%X[.[.",
"[.[.[.[.%X%X%X%X%X%X%X%X[.[.'.~.U.w.} V r 4 y T <.j.n.Z.S.J.K.K.J.J.H.Z.n.h.i.E D - , a _ 0.y.Q./.'.[.[.[.[.%X%X%X%X%X%X%X%X[.[.",
"[.[.[.[.[.[.%X%X%X%X%X%X%XXX].].].`.t.] k % : p :.i.j.v.V.C.C.C.C.C.N.N.j.g.u.T t & > N 9.(.'.'.'.[.[.[.[.[.[.[.%X%X%X%X%X%X%X%X",
"[.[.[.[.[.[.%X%X%X%X%X%X%XXX[.[.[.].!.| x w 9 g T :.>.u.<.4.4.4.4.4.3.u.>.>.^ P a q j ' y.}.[.[.[.[.[.[.[.[.[.[.%X%X%X%X%X%X%X%X",
"[.[.[.[.[.[.[.[.%X%X%X%X%X%X%X%X[.].).t.| ( V b g d d L L I I I I I I L L J d b M Z 5.q.^. X%X%X[.[.[.[.[.[.[.[.[.[.%X%X%X%X%X%X",
"[.[.[.[.[.[.[.[.%X%X%X%X%X%X%X%X[.[.`.~.U.w.} V 0 , & * * * * * = * * * & * 4 c 6.e.I.(.|.XX%X%X[.[.[.[.[.[.[.[.[.[.%X%X%X%X%X%X",
"[.[.[.[.[.[.[.[.[.[.%X%X%X%X%X%X%X%X].].].`.U.( h @   .     .   X   X   . X % z } W..XXXXXXX%X%X%X%X[.[.[.[.[.[.[.[.[.[.%X%X%X%X",
"[.[.[.[.[.[.[.[.[.[.%X%X%X%X%X%X%X%X[.[.[.].W.| B w % 1 6 6 6 6 1 1 1 1 1 6 h ( q.`.%X%X%X%X%X%X%X%X[.[.[.[.[.[.[.[.[.[.%X%X%X%X",
"%X%X[.[.[.[.[.[.[.[.[.[.%X%X%X%X%X%X%X%X[.[./.t.| ( B B C B Z Z C C B B B C ) 0.W.`.[.[.XXXX%X%X%X%X%X%X[.[.[.[.[.[.[.[.[.[.%X%X",
"%X%X[.[.[.[.[.[.[.[.[.[.%X%X%X%X%X%X%X%X[.[.`.~.U.t.w.w.w.t.I.I.I.r.w.t.t.w.y.Q.`.'.[.[.%X%X%X%X%X%X%X%X[.[.[.[.[.[.[.[.[.[.%X%X",
"%X%X%X%X[.[.[.[.[.[.[.[.[.[.%X%X%X%X%X%XXX%X[.[.'.`.`.`.`.`.`.`. X X X X`.`.'.'.[.[.[.[.[.[.%X%X%X%X%X%X%X%X[.[.[.[.[.[.[.[.[.[.",
"%X%X%X%X[.[.[.[.[.[.[.[.[.[.%X%X%X%X%X%X%X%X[.[.[.[.[.[.[.[.[.[.%X%X%X%X[.[.[.[.[.[.[.[.[.[.%X%X%X%X%X%X%X%X[.[.[.[.[.[.[.[.[.[.",
"%X%X%X%X%X%X[.[.[.[.[.[.[.[.[.[.%X%X%X%X%X%X%X%X[.[.[.[.[.[.[.[.%X%X%X%X%X%X[.[.[.[.[.[.[.[.[.[.%X%X%X%X%X%X%X%X[.[.[.[.[.[.[.[.",
"%X%X%X%X%X%X[.[.[.[.[.[.[.[.[.[.%X%X%X%X%X%X%X%X[.[.[.[.[.[.[.[.%X%X%X%X%X%X[.[.[.[.[.[.[.[.[.[.%X%X%X%X%X%X%X%X[.[.[.[.[.[.[.[.",
"%X%X%X%X%X%X%X%X[.[.[.[.[.[.[.[.[.[.%X%X%X%X%X%X%X%X[.[.[.[.[.[.%X%X%X%X%X%X%X%X[.[.[.[.[.[.[.[.[.[.%X%X%X%X%X%X%X%X[.[.[.[.[.[.",
"%X%X%X%X%X%X%X%X[.[.[.[.[.[.[.[.[.[.%X%X%X%X%X%X%XXX[.[.[.[.[.[.%X%X%X%X%X%X%X%X[.[.[.[.[.[.[.[.[.[.%X%X%X%X%X%X%X%X[.[.[.[.[.[."
};
