/* XPM */
static char *chicken_overlay1718870562[] = {
/* columns rows colors chars-per-pixel */
"64 64 216 2 ",
"   c #010101",
".  c #0D0404",
"X  c #0A0A06",
"o  c #0C0C0B",
"O  c #170C05",
"+  c #0F130D",
"@  c #1F1005",
"#  c #13150E",
"$  c #171715",
"%  c #191D16",
"&  c #1B1D1B",
"*  c #340F0F",
"=  c #2D190B",
"-  c #311A17",
";  c #1F241D",
":  c #27261E",
">  c #222C1F",
",  c #3E361F",
"<  c #252724",
"1  c #272E22",
"2  c #2F2F2F",
"3  c #352A22",
"4  c #2A3223",
"5  c #2B3628",
"6  c #333E2C",
"7  c #333433",
"8  c #3A3D37",
"9  c #5F1C1C",
"0  c #46230C",
"q  c #562F19",
"w  c #663615",
"e  c #442A23",
"r  c #5A2B26",
"t  c #433729",
"y  c #50392D",
"u  c #6F2C29",
"i  c #33432E",
"p  c #3A402D",
"a  c #364331",
"s  c #3A4531",
"d  c #3D4837",
"f  c #3D5037",
"g  c #3F5138",
"h  c #62411F",
"j  c #56492B",
"k  c #424938",
"l  c #424A3D",
"z  c #534435",
"x  c #44563E",
"c  c #55563C",
"v  c #694726",
"b  c #6B4C2E",
"n  c #7C553B",
"m  c #464645",
"M  c #474945",
"N  c #494A49",
"B  c #544B47",
"V  c #4D5646",
"C  c #52574B",
"Z  c #51594C",
"A  c #545453",
"S  c #585957",
"D  c #5A5A5A",
"F  c #6E5353",
"G  c #4D6445",
"H  c #576448",
"J  c #55694B",
"K  c #57704D",
"L  c #59724F",
"P  c #5A6854",
"I  c #5F7151",
"U  c #5E7A54",
"Y  c #646B47",
"T  c #607C56",
"R  c #62755B",
"E  c #627958",
"W  c #6A7D5A",
"Q  c #656565",
"!  c #666C64",
"~  c #696D66",
"^  c #6A6A6A",
"/  c #746D67",
"(  c #697363",
")  c #6A7365",
"_  c #71786F",
"`  c #747474",
"'  c #757B73",
"]  c #787D77",
"[  c #7A7A7A",
"{  c #852928",
"}  c #8A2828",
"|  c #903A3A",
" . c #884A1C",
".. c #914E1F",
"X. c #8D5026",
"o. c #945F3B",
"O. c #A75B25",
"+. c #B86226",
"@. c #C75D3D",
"#. c #CC6D35",
"$. c #DA7838",
"%. c #A64040",
"&. c #AC4141",
"*. c #BB564E",
"=. c #8C6459",
"-. c #BA7748",
";. c #87786D",
":. c #96746A",
">. c #A76464",
",. c #BA6867",
"<. c #D0794B",
"1. c #C56957",
"2. c #C06B6B",
"3. c #C57877",
"4. c #67845C",
"5. c #6D825C",
"6. c #6A8260",
"7. c #6D8B62",
"8. c #768C65",
"9. c #6F9064",
"0. c #76976A",
"q. c #799369",
"w. c #779A6A",
"e. c #799C6C",
"r. c #7F807F",
"t. c #7CA06F",
"y. c #7DA270",
"u. c #80827F",
"i. c #859D72",
"p. c #A68773",
"a. c #BC9479",
"s. c #86A274",
"d. c #8BA476",
"f. c #82A975",
"g. c #86AE78",
"h. c #92AD7D",
"j. c #89B27B",
"k. c #D88752",
"l. c #E18C53",
"z. c #D19773",
"x. c #E29966",
"c. c #DDA17C",
"v. c #E4A377",
"b. c #828282",
"n. c #868783",
"m. c #8C8C8C",
"M. c #938D8B",
"N. c #8E908C",
"B. c #939393",
"V. c #9C9C9B",
"C. c #B29191",
"Z. c #8FB980",
"A. c #9AB784",
"S. c #9BB784",
"D. c #92BC82",
"F. c #9EA09E",
"G. c #A4B58F",
"H. c #A4A4A4",
"J. c #A8A8A7",
"K. c #ACACAC",
"L. c #B4ACA6",
"P. c #B5B2AF",
"I. c #B2B2B2",
"U. c #BCBCBC",
"Y. c #CD908D",
"T. c #D69682",
"R. c #CA9494",
"E. c #CF9999",
"W. c #E2AA85",
"Q. c #E5B493",
"!. c #E6BB9D",
"~. c #D3A6A6",
"^. c #C5B4A9",
"/. c #D8BBA9",
"(. c #C2BFBF",
"). c #DAB8B5",
"_. c #95C185",
"`. c #9AC78A",
"'. c #9DCC8D",
"]. c #A5C48D",
"[. c #A0CF8F",
"{. c #ACCC93",
"}. c #A4D593",
"|. c #AFD096",
" X c #A7D996",
".X c #A9DB97",
"XX c #ACDF9A",
"oX c #B0D197",
"OX c #B5D69A",
"+X c #BADC9F",
"@X c #BCDFA1",
"#X c #BEE2A3",
"$X c #DFC1AD",
"%X c #E6C4AE",
"&X c #E6CAB8",
"*X c #C1E5A5",
"=X c #C4C4C4",
"-X c #CBC1C1",
";X c #CBCBCB",
":X c #DDC6C6",
">X c #D3CAC9",
",X c #DFC8C8",
"<X c #D6D6D5",
"1X c #DCD9D6",
"2X c #DCDCDC",
"3X c #E1CECE",
"4X c #E8D4C6",
"5X c #E9D6C9",
"6X c #E6D9D4",
"7X c #E5DCD9",
"8X c #E6E1DE",
"9X c #E9E1DC",
"0X c #E4E3E3",
"qX c #E9E6E5",
"wX c #EBE9E7",
"eX c #EBEBEB",
/* pixels */
"XXXXXXXXXXXX*X*X*X*X*X*X*X*XXXXXXX.XD.0.K s 6 5 i 6 6 6 6 s Z 8.g.[.XXXXXXXX*X*X#X*X*X*X*X*XXXXXXXXXXXXXXXXXXXXX*X*X*X*X*X*X*X*X",
"XXXXXXXXXXXX*X*X*X*X*X*X*X*XXXXXXX}.j.U i +               o 1 J e.'.XXXXXXXX*X*X#X#X*X*X*X*XXXXXXXXXXXXXXXXXXXXX*X*X*X*X*X*X*X*X",
"XXXXXXXXXXXXXXXX*X*X#X+XOXoX|.|.[._.f.I p = . . . . . . O O 3 Y 9.j.[.'.'.'.[.}.#X#X*X*X*X*X*X*XXXXXXXXXXXXXXXXXXXXX*X*X*X*X*X*X",
"XXXXXXXXXXXXXXXX*X#XOX].A.d.i.i.w.9.W C t - * * * * * * * * e B I 8.w.w.0.t.g.j.OX#X*X*X*X*X*X*XXXXXXXXXXXXXXXXXXXXX*X*X*X*X*X*X",
"XXXXXXXXXXXXXXXXXX X{.h.8.I H H Z H c y r 9 9 9 9 9 9 9 9 9 r y z G G G G G 4.w.D.}.#X*X*X*X*X*X*X*XXXXXXXXXXXXXXXXXXXXX*X*X*X*X",
"XXXXXXXXXXXXXXXXXX XG.q.H 6 > 1 < 2 3 r u { } } } } } } } } u r e 1 ; ; > 1 f U y.[.#X*X*X*X*X*X*X*XXXXXXXXXXXXXXXXXXXXX*X*X*X*X",
"*X*XXXXXXXXX.X}.}.`.f.E V 4 & & & & 2 r | | &.&.&.&.&.&.&.%.| u e : & & & < i J w.D.[.}.#X#X*X*X*X*X*X*XXXXXXXXXXXXXXXXXXXXX*X*X",
"*X*XXXXXXXXX[._.g.e.6.R P N N m m m F F >.,.2.2.2.2.2.2.2.,.>.=.F B N M m N Z I 6.e.y.Z.oX#X*X*X*X*X*X*XXXXXXXXXXXXXXXXXXXXX*X*X",
"*X*X*X*XXX.X`.f.4.L P ( _ u.b.b.b.b.M.C.C.R.E.E.E.E.E.E.E.E.R.C.M.n.n.b.b.b.[ ) P J E e.D. X#X*X*X*X*X*X*X*XXXXXXXXXXXXXXXXXXXXX",
"*X*X*X*XXX}.D.7.G i d ^ N.I.U.(.(.U.(.-X>X:X,X,X,X,X,X:X:X:X>X-X(.(.(.(.U.U.V.] Z a g U y.[.#X#X*X*X*X*X*X*XXXXXXXXXXXXXXXXXXXXX",
"*X*X@X@XOX{.f.E g 5 m ` J.<X0X0X0X0X0XeX0XqXqXqXqXqXqXqX0XqX0XqX0X0X0X0X0X2XU.m.S 7 a K w.D.'.}.#X*X*X*X*X*X*X*XXXXXXXXXXXXXXXXX",
"*X@XOX].A.s.7.R P A Q B.U.2XeXeXeXeXeXeXeXeXeXeXeXeXeXeXeXeXeXeXeXeXeXeXeX0X=XH.] S S P 6.w.y.Z.OX#X*X*X*X*X*X*XXXXXXXXXXXXXXXXX",
"*X@X{.h.8.I P ) _ b.B.I.;X0XeXeXeXeXeXeXeXeXeXeXeXeXeXeXeXeXeXeXeXeXeXeXeXqX<XU.F.m.] ) P K U w.D.}.#X#X*X*X*X*X*X*XXXXXXXXXXXXX",
"*X@XG.q.H a M ) B.I.;X<X2XeXeXeXeXeXeXeXeXeXeXeXeXeXeXeXeXeXeXeXeXeXeXeXeXeX0X<X;XU.F.] Z 8 f 4.y.}.*X*X*X*X*X*X*X*XXXXXXXXXXXXX",
"XX}.A.5.d ; 7 ^ F.<X0X0XeXeXeXeXeXeXeXeXeXeXeXeXeXeXeXeXeXeXeXeXeXeXeXeXeXeXeX0X0X2XI.u.m ; 5 G t.[.XXXX*X*X*X*X*X*X*X*XXXXXXXXX",
"XX}.A.W a & 5 ^ H.<XeXeXeXeXeXeXeXeXeXeXeXeXeXeXeXeXeXeXeXeXeXeXeXeXeXeXeXeXeXeXeX0XU.b.m & > G e.[.XXXX*X*X*X*X*X*X*X*XXXXXXXXX",
"XX}.j.U s % 2 ~ H.<XeXeXeXeXeXeXeXeXeXeXeXeXeXeXeXeXeXeXeXeXeXeXeXeXeXeXeXeXeXeXeX0XU.b.m & > G e.'.XXXXXXXX#X#X#X#X*X*X*X*XXXXX",
"XX}.j.U s ; 2 ^ H.<XeXeXeXeXeXeXeXeXeXeXeXeXeXeXeXeXeXeXeXeXeXeXeXeXeXeXeXeXeXeXeX0XU.b.m ; > G e.[.XXXXXXXX#X#X*X*X*X*X*X*XXXXX",
"XX}.j.U i % 2 ^ H.2XeXeXeXeX0X0X2X<X2X2X0XeXeXeXeXeX0X2X2X<X2X2X0XeXeXeXeXeXeXeXeX0XU.r.m & ; x 7.Z.'.'.'.'.'.}.#X#X*X*X*X*X*X*X",
"XX.Xj.U i % 2 ^ J.<XeXeXeXeX2X;XU.K.I.=X<X0XeXeXeXeX2X;XU.K.I.=X<X0XeXeXeXeXeXeXeX0XU.r.m & % 8 J 7.w.w.w.t.y.Z.XX#X*X*X*X*X*X*X",
"XX}.g.U i % 2 Q H.<XeXeXeX0X<XI.B.` b.H.=X2XeXeXeX0X<XI.m.[ b.H.=X2XeXeXeXeXeXeXeX2XU.b.m & o 2 i V G G G G U w.Z.}.*X*X*X*X*X*X",
"XX Xj.U i % 2 ^ J.<XeXeXeX0X=XB.Q m A b.I.2XeXeXeX0X=XB.Q m A b.I.2XeXeXeXeXeXeXeX0XU.b.m $ o o % ; > ; > > f 4.f.[.*X*X*X*X*X*X",
"XX}.j.U i % 2 ^ H.<XeXeXeX0XU.b.N < 7 ` J.<XeXeXeX0X(.b.N < 7 ` J.<XeXeXeXeXeXeXeX0XU.b.m $ o o + & & ; ; ; a K e.D.[.}.#X#X*X*X",
"XX Xj.U i % 2 ^ H.<XeXeXeX0XU.b.m & 2 ^ H.2XeXeXeX0XU.b.m & 2 ^ H.2XeXeXeXeXeXeXeX0XU.r.m $ o < 7 l m N m N A P 6.0.y.Z.oX#X*X*X",
"#X@Xg.U i % 2 ^ H.<XeXeXeX0X+Xb.m & 2 ^ J.<XeXeXeX0XOXb.m & 2 ^ H.<XeXeXeXeXeXeXeX2XU.b.m $ & 8 D [ b.b.b.r.] ) P P U e.Z.}.#X#X",
"*X@Xj.U i % 2 ^ H.<XeXeXeX0XU.b.m & 2 ^ J.<XeXeXeX0XU.b.m & 2 ^ H.2XeXeXeXeXeXeXeX0XU.b.m & < A b.K.=XU.U.U.F.] Z a g U y.}.*X*X",
"#X@XA.W i % 2 ^ H.1XeXqX0X1X^.u.B 3 7 / C.3X9XqX0X0X(.m.A 7 m [ K.<XeXeXeXeXeXeXeX0XU.b.m & 2 ^ H.;X0X0X0X2XI.b.m ; 5 G t.[.XXXX",
"#X@XA.W i % 2 ^ H.1X9X6X&X$XT.:.n r b =.C.!.&X5X8X0X;XV.[ D Q B.U.2XeXeXeXeXeXeXeX0XU.b.m & 2 ^ H.2XeXeXeX0XU.r.m & > G e.[.XXXX",
"*X@XA.W a % 2 ^ H.<X6X&X!.W.z.-.o. .X.o.k.c.Q.%X3X8X<XU.H.M.B.I.;X0XeXeXeXeXeXeXeX0XU.b.m & 2 ^ H.<XeXeXeX0XU.r.m & 1 G e.'.XXXX",
"#X@XA.W s % 2 ^ H.<X4X%Xv.l.k.$.#.+.#.#.<.l.x.Q.4X9X0X1X;X=X=X<X2XeXeXeXeXeXeXeXeX0XU.b.m & 2 ^ H.2XeXeXeX0XU.r.m & 1 G e.[.XXXX",
"*X@XA.W s % 2 ^ H.3X5X!.v.l.$.$.$.$.$.$.$.$.l.W.%X9XwXqX0X0X0XeXeXeXeXeXeXeXeXeXeX0XU.m.D 2 8 ^ F.=X2X2X0X0XU.r.m ; > G e.'.XXXX",
"*X@XA.W s % 2 ^ H.<X5X%XQ.x.x.x.x.l.k.<.#.#.<.c.).9XeXeXeXeXeXeXeXeXeXeXeXeXeXeXeX0X;XF.[ D S ` m.F.I.=X<X2XU.r.m & > G e.'.XXXX",
"XX}.j.U i % 2 ^ H.<X9X4X%X!.Q.Q.Q.Q.W.k.1.@.1.T.$X7XeXeXeXeXeXeXeXeXeXeXeXeXeXeXeX0X<XU.H.m.r.` ` ^ r.H.=X<XU.b.m & 1 J y.|.@X#X",
"XX Xj.U i % 2 ^ H.6X9X9X5X5X5X3X4X&X).T.1.*.*.Y.).0XeXeXeXeXeXeXeXeXeXeXeXeXeXeXeXeX0X<X;XU.H.[ D m A b.I.<XU.b.m & 1 J Z.{.#X#X",
"XX}.g.U i % 2 ^ H.<XeXeXwXwXeXqXqX9X,XE.2.*.,.Y.).8XeXeXeXeXeXeXeXeXeXeXeXeXeXeXeXeXeXeX0X2XU.m.D 7 m [ K.;XU.r.m & < J i.|.*X*X",
"XX Xg.U i % 2 ^ H.1XeXeXeXeXeXeXeXqX3X).E.3.Y.~.:XqXeXeXeXeXeXeXeXeXeXeXeXeXeXeXeXeXeXeXeX0X;XF.[ D ^ B.U.<XU.b.m & < P i.@X*X*X",
"XX}.j.U i % 2 ^ H.<XeXeXeXeXeXeXeXqX7X,X).~.~.).3XqXeXeXeXeXeXeXeXeXeXeXeXeXeXeXeXeXeXeXeX0X<XU.F.B.B.I.;X2XU.b.M & 1 G N.oX*X*X",
"XX}.j.U i % 2 ^ H.1XeXeXeXeXeXeXeXeXqX7X3X3X3X7XqXqXeXeXeXeXeXeXeXeXeXeXeXeXeXeXeXeXeXeXeXeX0X2X;X=X=X<X2X2XU.b.m & > G f. X*X*X",
"#X@Xj.U i $ 2 ^ H.<XeXeXeXeXeXeXeXeXwXqXeXqXqXqXeXeXeXeXeXeXeXeXeXeXeXeXeXeXeXeXeXeXeXeXeXeXeXeX0X0X0XeXeX0XU.b.m & > G e.'.*X*X",
"#X@Xj.U 8 & 2 ^ H.2XeXeXeXeXeXeXeXeXeXeXeXeXeXeXeXeXeXeXeXeXeXeXeXeXeXeXeXeXeXeXeXeXeXeXeXeXeXeXeXeXeXeXeX0XU.b.M & > G e.'.*X*X",
"#X#XA.W i % 2 Q H.<XeXeXeXeXeXeXeXeXeXeXeXeXeXeXeXeXeXeXeXeXeXeXeXeXeXeXeXeXeXeXeXeXeXeXeXeXeXeXeXeXeXeXeX0XU.u.m & > G t.'.XXXX",
"#X@XA.W i % 2 ^ J.<XeXeXeXeXeXeXeXeXeXeXeXeXeXeXeXeXeXeXeXeXeXeXeXeXeXeXeXeXeXeXeXeXeXeXeXeXeXeXeXeXeXeXeX0XU.u.m & ; G t.'.XXXX",
"#X@XA.W a & 2 ^ H.<XeXeXeXeXeXeXeXeXeXeXeXeXeXeXeXeXeXeXeXeXeXeXeXeXeXeXeXeXeXeXeXeXeXeXeXeXeXeXeXeX0X0X2X;XK.r.N < 6 K y.'.XXXX",
"#X#XA.W s & 2 ^ J.<XeXeXeXeXeXeXeXeXeXeXeXeXeXeXeXeXeXeXeXeXeXeXeXeXeXeXeXeXeXeXeXeXeXeXeXeXeXeXeX0X2X;XU.J.M.' P x G 7.j.[.XXXX",
"#X+XS.W s % 2 Q J.<XeXeXeXeXeXeXeXeXeXeXeXeXeXeXeXeXeXeXeXeXeXeXeXeXeXeXeXeXeXeXeXeXeXeXeXeXeXeXeX0X<XI.M.` ~ ) ( 5.9.f._.}.XXXX",
"*X+XS.W s ; 2 ^ H.1XeXeXeXeXeXeXeXeXeXeXeXeXeXeXeXeXeXeXeXeXeXeXeXeXeXeXeXeXeXeXeXeXeXeXeXeXeXeXeX0X=XB.Q m l P q.h._.`.}. XXXXX",
"XX}.S.W i ; 2 ^ H.<XeXeXeXeXeXeXeXeXeXeXeXeXeXeXeXeXeXeXeXeXeXeXeXeXeXeXeXeXeXeXeXeXeXeXeXeXeXeXeX0XU.n.N < 5 J s.{.#X#XXXXXXXXX",
"XX.XA.W a & 2 ^ J.2XeXeXeXeXeXeXeXeXeXeXeXeXeXeXeXeXeXeXeXeXeXeXeXeXeXeXeXeXeXeXeXeXeXeXeXeXeXeXeX0XU.b.m & 1 J s.oX#X#XXXXXXXXX",
"XX}.j.U s % 2 ^ H.<XeXeXeXeXeXeXeXeXeXeXeXeXeXeXeXeXeXeXeXeXeXeXeXeXeXeXeXeXeXeXeXeXeXeXeXeXeXeXeX0XU.[ m & 1 J s.|.*X*X*X*XXXXX",
"XX}.j.U s & 2 ^ H.<XeXeXeXeXeXeXeXeXeXeXeXeXeXeXeXeXeXeXeXeXeXeXeXeXeXeXeXeXeXeXeXeXeXeXeXeXeXeXeX0XU.b.m ; 1 J s.|.*X*X*X*XXXXX",
"XX Xj.4.f 1 8 ~ V.=X2X2X0XeXeXeXeXeXeXeXeXeX0X0X2X<X<X<X<X<X<X0X0XeXeXeXeXeXeXeXeXeXeX0X2X<X<X<X<X;XK.[ N 1 6 K d.OX#X*X*X*X*X*X",
"XX X_.e.L x Z ~ n.F.I.=X<XqXeXeXeXeXeXeXeXwX2X;XU.K.H.F.H.J.I.=X<X0XeXeXeXeXeXeXeX0X2X;XI.K.H.H.H.F.N.' S x G 7.A.OX*X*X*X*X*X*X",
"XX X'.g.e.4.R R ! ^ b.H.=X0XeXeXeXeXeXeXeX0X<XI.N.` Q Q Q ` b.H.=X2XeXeXeXeXeXeXeX0X<XI.B.` Q Q ^ Q ^ ( U E 9.f._.}.*X*X*X*X*X*X",
"XXXX X'._.j.w.U V m A b.I.2XeXeXeXwXeXeXeX0X=XB.Q 8 2 2 2 7 A b.I.2XeXeXeXeXeXeXeX0X=XB.^ t 2 2 2 7 d K 9.f.D.`.}.XX*X*X*X*X*X*X",
"XXXXXX X X[.j.4.x 5 k / F.-X<X1X7X9X9X9X1X;XK.u.Z 1 & % % ; m ^ F.-X2X1X7X9X9X7X2X;XI.r.A < % & & ; i L t.`. X.XXXXXXXXX*X*X*X*X",
"XXXXXXXXXX X_.w.L x Z ) u.V.L.P./.$X/.^.L.H.N._ S f i a a g V ^ u.V.L.P./.$X/.^.L.H.m.` P x s d s k G 7.j.}.XXXXXXXXXXXX*X*X*X*X",
"*X*XXXXXXX.X'.j.w.4.U ! ) ^ ;.p.a.c.z.p.8./ ! ( E E T T E U W ( ( ) ;.p.a.c.z.p.;./ ! ( ( 4.W W 5.6.q.h._.}.XXXXXXXXXXXXXXXX#X*X",
"*X*XXXXXXXXX}.'._.j.w.U V 8 y n +.<.k.n b 8 l P 7.f.j.j.j.j.i.W Z t z n o.<.-.o.b p g P q.h.A.A.A.A.].{.}.XXXXXXXXXXXXXXXXXX*X*X",
"*X*X*X*XXXXXXX.X.X[.g.U i ; - w ..+.O. .t 4 a L y.`.}. X X}.g.U d ; = q ..+.O.v q 1 s L t.`.@X@X@X@X#X#X#X#XXXXXXXXXXXXXXXXXXXXX",
"*X*X*X*XXXXXXXXXXX Xj.U i # @ 0 h  . .b j z G 4.j.}.XXXXXX}.j.U d # = 0 w  ...v j k G 5.g.}.*X*X*X*X*X*X*X*XXXXXXXXXXXXXXXXXXXXX",
"*X*X*X*X*X*XXXXXXX}.j.U i # O = 0 q h b Y W q.Z._.}.XXXXXX}.j.U s # . = 0 q h v Y U 7.f._. XXXXX*X*X*X*X*X*X*X*XXXXXXXXXXXXXXXXX",
"*X*X*X*X*X*XXXXXXX}.j.U i + X . @ = t c i.h.G.{.}..XXXXXXX}.j.U s # . O = = , c 5.f.j.[.}..XXXXX*X*X*X*X*X*X*X*XXXXXXXXXXXXXXXXX",
"*X*X*X*X*X*X*X*XXX Xj.U i +       O 4 Y i.G.@X#X#X#XXXXXXX}.j.U s +     X X 4 K q.`..X.X.XXXXXXXXXXX*X*X*X*X*X*X*X*XXXXXXXXXXXXX",
"*X*X*X*X*X*X*X*XXX}.j.U i +       X > H s.|.*X*X*X*XXXXXXX}.j.U s #       X > J e.'.XXXXXXXXXXXXXXXX*X*X*X*X*X*X*X*XXXXXXXXXXXXX"
};
