/* XPM */
static char *grass_overlay1718870562[] = {
/* columns rows colors chars-per-pixel */
"64 64 216 2 ",
"   c gray9",
".  c #181717",
"X  c #1A1818",
"o  c #241A1A",
"O  c #2C1E1E",
"+  c #351E1E",
"@  c #1F221E",
"#  c #21231F",
"$  c #232722",
"%  c #262925",
"&  c #2A2F27",
"*  c #2C2E2C",
"=  c #312121",
"-  c #3C2525",
";  c #2C3229",
":  c #38342C",
">  c #2F3030",
",  c #343734",
"<  c #432323",
"1  c #4C2424",
"2  c #512525",
"3  c #542A2A",
"4  c #582D2D",
"5  c #4C3734",
"6  c #5B3331",
"7  c #5B3934",
"8  c #682A2A",
"9  c #732D2D",
"0  c #7A2E2E",
"q  c #643434",
"w  c #763635",
"e  c #7A3434",
"r  c #7D3B3A",
"t  c #3B4536",
"y  c #434C3C",
"u  c #6D473E",
"i  c #7B403D",
"p  c #3F4040",
"a  c #4D4B48",
"s  c #465640",
"d  c #4C5E45",
"f  c #585846",
"g  c #575655",
"h  c #5A5B5C",
"j  c #645243",
"k  c #6F514E",
"l  c #53634A",
"z  c #5A654D",
"x  c #5A6D51",
"c  c #5C7353",
"v  c #7B654B",
"b  c #696B52",
"n  c #7A6A56",
"m  c #657156",
"M  c #5F6261",
"N  c #686564",
"B  c #766D6C",
"V  c #75716C",
"C  c #747474",
"Z  c #777777",
"A  c #7D7D7E",
"S  c #822D2D",
"D  c #813A3A",
"F  c #8C3B3B",
"G  c #943333",
"H  c #983635",
"J  c #953A3A",
"K  c #9D3D3D",
"L  c #A73737",
"P  c #A73939",
"I  c #AC3D3D",
"U  c #88403F",
"Y  c #AB403F",
"T  c #894444",
"R  c #994847",
"E  c #865757",
"W  c #955151",
"Q  c #9A5252",
"!  c #945B5B",
"~  c #9B5A5A",
"^  c #A44343",
"/  c #AB4444",
"(  c #A74A4A",
")  c #AC4A4A",
"_  c #B34444",
"`  c #B84746",
"'  c #B54949",
"]  c #B94B4B",
"[  c #BB504F",
"{  c #AA5454",
"}  c #A55E5E",
"|  c #B45353",
" . c #BE5251",
".. c #B95C5C",
"X. c #816A4C",
"o. c #966A4E",
"O. c #9B6E4F",
"+. c #9B6E50",
"@. c #936959",
"#. c #9A7953",
"$. c #977059",
"%. c #99735D",
"&. c #A37552",
"*. c #AB7C54",
"=. c #8B6363",
"-. c #8A6B6B",
";. c #976565",
":. c #946B6B",
">. c #8A7769",
",. c #987964",
"<. c #837676",
"1. c #8A7877",
"2. c #847A7A",
"3. c #96797A",
"4. c #AA6768",
"5. c #B16F70",
"6. c #B47273",
"7. c #BB7879",
"8. c #C1504F",
"9. c #C45454",
"0. c #C85857",
"q. c #C55958",
"w. c #CC5C5A",
"e. c #D05F5E",
"r. c #D1605F",
"t. c #6B825E",
"y. c #768B66",
"u. c #719066",
"i. c #749067",
"p. c #7E946D",
"a. c #77986C",
"s. c #799A6D",
"d. c #9C815F",
"f. c #AA8457",
"g. c #B58758",
"h. c #BB8B59",
"j. c #BD925C",
"k. c #9A8163",
"l. c #89827A",
"z. c #9D8373",
"x. c #96867A",
"c. c #859C73",
"v. c #AA8E6D",
"b. c #BB9567",
"n. c #A18776",
"m. c #A48B7D",
"M. c #A5937D",
"N. c #88AC79",
"B. c #89B17C",
"V. c #BAA07F",
"C. c #C3955D",
"Z. c #C7985E",
"A. c #CB9A5E",
"S. c #C69C65",
"D. c #D29F61",
"F. c #CFA465",
"G. c #D3A161",
"H. c #7C7E80",
"J. c #A97E80",
"K. c #7F8282",
"L. c #848586",
"P. c #88898B",
"I. c #948B8B",
"U. c #9D8E8A",
"Y. c #8F9193",
"T. c #929090",
"R. c #939495",
"E. c #999899",
"W. c #A88882",
"Q. c #B5898C",
"!. c #A5958B",
"~. c #B58E91",
"^. c #AA9A93",
"/. c #A99D98",
"(. c #B99395",
"). c #97AE80",
"_. c #97B482",
"`. c #BDA484",
"'. c #ABA299",
"]. c #B5A89B",
"[. c #9D9FA1",
"{. c #A99EA1",
"}. c #9FA0A4",
"|. c #A2A4A6",
" X c #A4A6A9",
".X c #A9A8A9",
"XX c #AAACAD",
"oX c #B4ABAA",
"OX c #B4B2AF",
"+X c #ACAEB1",
"@X c #B9AEB1",
"#X c #AEB0B4",
"$X c #B3B3B5",
"%X c #BAB2B4",
"&X c #BCB9B6",
"*X c #B3B6B9",
"=X c #B6B9BC",
"-X c #BABBBE",
";X c #C2AA8D",
":X c #C2BDB7",
">X c #97C287",
",X c #99C68A",
"<X c #9CC98C",
"1X c #A7C68F",
"2X c #A8C791",
"3X c #ACCC94",
"4X c #A4D593",
"5X c #ACDE9A",
"6X c #B3D59A",
"7X c #BAC0BF",
"8X c #BFE3A4",
"9X c #C1E5A5",
"0X c #BBBDC1",
"qX c #BCC1C1",
"wX c #C5C7CA",
"eX c #CBCED2",
/* pixels */
"5X5X5X5X5X5X9X9X9X9X9X9X9X9X5X5X5X5X_.u.d & X X X       X           .           X X ; z N.1X5X5X5X5X5X5X5X5X5X5X9X9X9X9X9X9X9X9X",
"5X5X5X5X5X5X9X9X9X9X9X9X9X9X5X5X5X5X>Xu.d & X X X X X   X X X X X X X X X X X X X X , z c.3X5X5X5X5X5X5X5X5X5X5X9X9X9X9X9X9X9X9X",
"5X5X5X5X5X5X5X5X9X9X8X6X6X2X2X2X_.,X).m d : O O O O O = O = O O O O = O O O O = $ = 5 j y.B.].1X>X>X,X<X4X5X5X5X5X5X9X9X9X9X9X9X",
"5X5X5X5X5X5X5X5X9X9X6X2XB.N.p.p.u.u.t.b f 6 4 4 4 4 4 4 4 4 4 4 4 4 4 4 4 4 4 4 4 6 7 j b c.c.p.u.y.s.B.>X4X5X5X5X5X9X9X9X9X9X9X",
"5X5X5X5X5X5X5X5X5X5X6XB.c.m d l g f a j j r D D D D D D D D D D D D D D D D D D D D r j j f d f l l m u.B.4X5X5X5X5X5X5X9X9X9X9X",
"5X5X5X5X5X5X5X5X5X6X2XN.b , & * * > : 6 D R ( / / ) / ^ ^ ( ) ^ ^ ) ^ ( ) ^ ^ ) ) ^ R r 7 : > * & ; t x a.<X5X5X5X5X5X5X9X9X9X9X",
"9X9X5X4X<X,X>X>X>X_.N.m f 5 + O O + < q D Y ] ] ] ' ] ] ] ] ] ] ] ` ] ] ` ` ] ] ' ' ^ D q - O O + = 5 x u.B.>X>X>X>X<X<X4X5X9X9X",
"9X9X4X>XN.a.u.u.u.u.t.b j 7 4 4 4 4 q e J / _ _ _ _ _ _ _ _ _ _ _ _ _ _ _ _ _ _ _ _ I F e q 4 4 4 4 7 j b t.u.u.u.u.s.B.>X4X9X9X",
"9X9X6X).t.x d d d d f u u i i D D D F J K P I I I I I I I I I I I I I I I I I I I I I K F F r D r r i u j f d d d d c u.B.4X5X5X",
"8X8X2Xc.x t & & & ; : 7 i R ( ( ) ' ( / ^ P L L L L L L L L L L L L L L L L L L L L P L Y / / ( ( ^ R r 7 : & & ; ; t c s.<X5X5X",
"2X1X).y.f : = = O = < q W { ..........q.| ( ( / I P L L P P L L P P L P L I L L L L I I _ ' ] ] ] ' Y r 6 < O = O = : x t.B.,X,X",
"c.c.y.b j 7 4 4 4 4 q E @.6.7.7.7.7.7.J.5.4.4.{ ) / _ I I I I _ I I I I I I I I I I _ / _ _ _ _ _ _ Y F e q 4 4 4 4 7 u m t.u.a.",
"f f f j k e D D D D T ;.5.Q.(.(.(.(.(.J.(.(.J.7...' _ _ _ _ _ _ _ _ _ _ _ ' _ _ _ _ _ I _ I I I I I P K J U r r i i i u u d d x ",
"% & : 7 r R / / ( ( { 6.~.oX%X%X+X0X0X+X:X%X(.Q.5...] ] ] ] ] ] ] ] ] ] ] ] ] ] ] ] ' _ I P L L L L P P Y / ( / / Y K u 5 : $ t ",
". . O 4 D ^ ] ] ] ] ..7.(.%X0X=X#X+X+X#X0X0X@XJ.6...] ] ] ` ] ] ] ] ] ' ] ] ] ' ] ] _ _ _ I P P I L Y Y ` ` ] [ ] ] ^ w 3 o   # ",
". . O 3 e K _ _ _ _ | 6.(.%X=X X[.R.J.[. X@X:XQ.5.| _ _ _ _ _ _ _ _ _ _ _ _ _ _ _ _ _ _ I I I I I Y Y Y Y ` Y Y _ Y K w 2 o   $ ",
". . O 2 0 H I I I I | 5.~.@X#X[.7.C H.H.}.qX+X~.5.) I I I I I I I _ I I I I I I I I I _ _ _ _ _ _ _ _ _ I I I I I I J 9 1 O   $ ",
". . O 2 9 G L L L P ) 5.~.@X+XY.C g g H.K.#X0XW.4./ L L L L L P L L L L L L L L L L P I _ ] ] ] ] ] ` _ _ P P L L L G 8 1 o   $ ",
". . O 2 9 G L L P P ( 5.~.#X+XY.C g h H.R.+X}.J.4./ P L P P P P L L P P L L L L L P P _ _ _ ] ] ' ` ` _ I P P P P P G 9 1 o   $ ",
"  . O 2 0 P I I I Y { 6.(.@X#X[.K.K.H.K.[.0X$X~.5.| I Y I I I I I I I I I I _ / I _ I I _ _ _ _ _ _ _ _ _ Y Y I I I H 9 1 o   $ ",
". . O 3 e ^ _ _ _ ' | 6.(.@X*XXX[.Y.Y.[.+X#X@XJ.6. ._ _ ' _ _ _ _ _ _ _ _ _ _ _ _ _ _ _ I I I I I I I _ _ _ ` _ _ _ K w 2 O   $ ",
". . O 4 D ^ ] ] ] ] ..7.(.%X0X*X0X X0X X0X0X:X(.5...] ] ] ] ] ] ] ] ] ] ] ] ] ] ] ] _ _ _ P L L L L I I _ ` ] ] ] ' ^ w 3 O   $ ",
". . O 4 D ^ ] ] ' ] ..6.~.oX*X*X#X0X0X0X0X0XoXJ.5. .' ' ] ] ] ] ] ] ] ] ` ] ` ] ` ` ` _ _ L P P L P I I _ ' ` ` ] ' ^ w 3 O   $ ",
". . O 3 e K _ _ _ _ | 4.W.{.|. X[.[.{.[.[.{.{.J.4.| _ _ _ _ _ _ _ _ _ _ _ _ _ _ _ _ _ _ I _ I I I I I _ I _ _ _ _ / K w 1 o   $ ",
"  . O 2 0 K P I I I ) } 3.I.E.R.R.R.R.R.R.E.I.3.{ / I I I I I I I I I I I I I I I I _ _ _ _ _ _ _ ' _ I _ Y I I I I J 9 1 o . % ",
"  . O 2 0 G L L L P ^ Q :.2.L.L.J.H.K.K.L.L.1.;.Q ^ L L L L L L L L L L P L L L P P P I _ ` ] ] ] ] ` _ I P L L L L G 8 1 o . % ",
". . O 1 9 G P P P P ^ W =.C A A H.H.H.J.1.<.-.! Q ^ P P P L P P L P P P L L P L P P I I _ _ ] ] ] ] ` _ I I P L P P G 9 1 o   $ ",
". . O 2 0 K Y Y I I ( ~ -.C J.A H.H.H.H.1.:.;.} ( _ I I I I I I I I I I I I I _ I I I Y I _ _ _ _ _ _ _ I Y I I I I J 9 1 o   $ ",
". . O 3 S ^ _ _ _ _ ( ~ :.2.H.H.H.H.J.B :.;.} | ) ' _ _ ' _ ' _ _ ' _ _ _ _ _ _ _ _ _ _ I I I I I I Y I _ _ _ _ _ / K w 2 o . % ",
". . O 4 D ^ ] ] ] ] | ~ :.2.2.H.H.H.1.:.4.| | | [ ] ] ] ] ] ] ] ] ] ] ] ] ] ] [ ] ] ' _ I I L L L L I I _ ` ] ] ] ] ^ e 3 O   $ ",
". . O 3 r ^ ] ' ] ] | } ;.1.1.1.2.1.:.;.}  . . . . . . . .8. .8. . .8.8. . .8.8.8.8.] _ _ I I L L P I I _ _ ] ] ] ] ^ w 2 O   $ ",
"  . O 2 e P _ _ _ _ ) { } ;.;.:.:.:.;.4.....q.9.9.9.9.q.9.9.q.9.9.q.9.9.9.q.9.q.9.0.9.8.] I I I I I _ I _ _ _ _ _ / K w 1 o   $ ",
". . O 2 0 H I I I I Y ( { } } } } } } ....w.w.w.w.w.w.w.w.w.w.w.w.w.w.w.w.w.w.w.w.w.0.8.[ ] _ ' _ _ _ Y Y I I I I I H 9 1 O . % ",
". . O 2 0 H L L P L I I ' | | | | |  ...w.r.r.r.r.r.r.r.r.r.r.r.r.r.r.r.r.r.r.r.r.r.w.0.8.] ] ] ] ] ] _ I P I L L L G 8 1 o . $ ",
". . O 2 9 G P P P L I _ ' [ 8.8.8.9.8.0.0.w.w.w.w.w.w.w.w.w.w.w.w.w.w.w.w.w.w.w.w.w.w.0.0.8.8. . .8.] ] Y I L P L L G 9 1 o   $ ",
"  . O 2 0 K I I I I _ ] ] 9.9.9.9.0.9.0.8.8.8.8.8.8.8.8.8.8.8.8.8.8.8.8.8.8.8.8.8.8.8.8.8.0.0.9.9.0.8.] ` _ Y Y I I J 9 1 o   $ ",
"  . O 2 e K _ _ _ _ ] 8.9.0.w.w.w.w.q.8.] ` _ Y ` ` _ ` _ ] _ _ _ ` _ _ _ _ ` _ ` _ ] 8.9.0.w.w.w.w.0.8.] ' _ _ _ / K w 2 O   $ ",
"  . O 4 D ^ [ ] [ ] [ 8.0.e.r.r.r.e.w.8.] P I I L L I L P P L I I P I I I P L I P L Y ` 9.w.e.e.r.r.w.0.8.[ ] ] ] ] ^ e 3 O   $ ",
"X X O 4 D ) 8.8.8.8.8.9.0.w.w.e.w.w.q.[ ( Y K K K K K Y K K K K K K K K K K K K P R ^ ) 9.9.w.w.w.w.w.0.0.8.8. .9.[ / r 3 O   $ ",
"X X + 4 U | q.9.q.9.9.9.8.8.8.8.8.8.[ { { W W W W W W W W W W W W W W W W W W Q W W Q ( |  .8.8.8.8.8.9.9.9.0.9.9.9._ k 3 O   $ ",
". X = q U  .w.w.w.w.0.8.[ ` _ _ Y ` ( { ! =.=.=.=.=.=.=.=.=.=.=.=.=.=.=.=.=.=.=.=.=.! ~ ( ) _ _ _ ` ` ] 9.w.w.w.w.w.| D 4 =   $ ",
"  X = 6 T  .r.r.r.e.w.8.` I P P I I Y W @.-.<.<.<.<.Z <.<.<.<.<.<.<.<.<.<.2.<.<.<.<.-.! W / I L I I Y ] 9.w.r.r.e.e.| T 4 $   $ ",
"  X O q T  .w.w.w.w.9.| ' ^ K K Y K R ! -.2.L.L.L.L.L.L.P.L.P.P.K.K.7.K.L.L.L.L.L.L.2.-.! R K K P K ^ ) [ 0.w.w.w.w.| U 4 O   $ ",
"  X = 4 U ) 8. .8.8. .) { W W W W W ! :.3.I.Y.R.Y.R.R.R.E.R.E.R.}.Y.}.Y.R.R.R.Y.R.R.I.3.;.! W W W W Q ( | [ ] 9.8.[ ) r 3 O   $ ",
". . + 2 e ^ _ _ ' _ ) { ~ =.=.=.=.=.:.l.I.E.[.}.}.}.}.}.|. X X X}.}. X[.}.[.[.[.[.[.E.I.3.-.=.=.=.=.@.~ ) ' _ ` _ _ K 9 1 O   # ",
". . O 2 9 H P P P P ^ Q =.-.<.<.<.2.2.I.E. XXXXXXXXXXX+X$X*X*X$XqXqX*X+X+X+XXXXX.X.X|.E.I.1.<.<.<.<.-.! Q ^ P P P L G 8 1 O   $ ",
". . o < 8 0 G H J K R E =.B Z y.2.l.l.T.R.E.[. X+X#X*X*X=X0X-X=X#X*X#XoXXX X.X{..X|./.U.P.l.A L.L.L.J.B ! R K H H G 0 8 < o   $ ",
". . o + 1 8 9 r U W W E k N N n l.z.z.x.L.L.P.E.}.#X*X=X-X0X-XOX X'././.!.!.!.!.!.!.U.I.3.>.>.l.P.Y.P.J.:.! T T e 9 8 1 O X   $ ",
". . o o + < 3 q k =.=.N k g g n k.k.v.l.n N C L.E.#X=X0X-X0X$XoX^.m.n.n.n.3.3.,.3.z.z.,.,.:.>.x.U.|./.T.J.B k k q 2 < + o X . # ",
". . . o X @ - p g B B M g a a v #.j.j.#.n d g C Y.#X0X0X0X7X$X'.m.,.$.$.+.%.&.+.+.$.$.$.o.@.,.n.'.XX+X}.P.J.B g p = o o o . . % ",
"; > % $ @ @ * p N H.J.V h f f X.f.j.j.f.v j f Z Y.+X0X0X7X-XOX^.n.$.o.o.+.+.O.O.O.O.o.o.o.o.%.m.'.%X=XXX[.Y.H.M p % X # & > > t ",
"z d d t ; @ * a B P.Y.K.>.n X.+.g.Z.C.f.#.v n x.E.#X*X*X=X=XoX^.n.%.o.+.&.*.*.&.*.f.*.#.+.o.,.M.oX-X0X*X+X[.P.N a % # , y d z m ",
"a.a.t.l t $ * g y.}..X`.v.%.f.g.j.A.A.j.f.f.d.M.'.oX7X#X*X*XXX!.3.%.O.&.*.h.C.C.h.h.g.*.&.o.,.W.].:XwX0X0X%X[.C a * % y m y.c.N.",
"<X,XN.t.s % > h P.#X:X:X;XC.C.C.A.D.D.A.Z.C.b.V.].oX$X#X#X#X.X!.z.+.O.*.g.C.C.A.A.A.C.g.*.+.,.W.oXwXeXeXwXwX#XK.g * ; l y._.3X3X",
"5X5X>Xu.d ; > M Y.0XwX;X;Xb.j.Z.A.D.D.A.C.C.b.V.].XXOX$X#X#X.X!.n.$.O.*.h.A.G.G.D.D.A.h.*.+.,.W.].wXeXeXeXeX=XL.h > ; z c.3X9X9X",
"5X5X>Xu.d & > M P.#X:X].M.d.d.f.j.A.A.j.f.#.d.m.^.OX*X*X7X*XXX!.3.$.O.*.C.A.G.D.D.D.Z.h.*.+.&.M.oX:XwXwXwXwX#XL.g * ; z c.3X9X9X",
"8X8X>Xu.d & > h P.+X0XR.l.n v #.f.Z.C.f.#.v n l.E.+X=X=X=X=XoX^.n.+.O.*.C.A.D.G.D.D.A.g.*.+.%.m. X0X0XeXqXqX XK.g * ; l s.<X8X8X",
"8X8X>Xu.d & > h H.+X#X[.C a f v f.S.j.#.v f g C T.+X0X0X-X=X$X^.n.%.O.*.h.A.G.G.D.D.A.h.*.+.%.m.[.0X0X0XqX0X XK.g * ; l s.<X8X8X",
"9X8X2Xp.d & > h J. X+XK.C h g X.f.b.b.k.n f h Z E.#X0X0X0X0X%X^.n.$.O.*.C.A.G.G.D.D.A.h.*.+.,.m.{.*X0X0XqX0X}.K.g * > l a.<X5X5X",
"9X8X2Xp.d & > g K. X#X[.P.Z Z x.!.`.`.M.l.V Z Y.}.$X0X0X0X0X@X^.n.%.O.*.h.A.G.G.D.D.A.g.*.+.;.m./.$X0X0XqX0X}.H.a * * l a.4X5X5X",
"9X8X3Xp.d * > h K.XX*XXX}.R.R.E.].].;X'.E.R.R.[.XX=X0X0XwX-XOX^.n.%.O.*.h.A.D.G.G.D.A.h.*.+.%.m./.%X0XqXqX=X XH.g * ; l a.<X5X5X",
"9X8X2Xp.l ; > h K..X0X=X*X+X#X$X%X&XqX-X$X#X#X*X=X0X0X0X0XqXOX^.n.%.O.*.h.A.D.G.G.D.A.h.*.+.%.m./.%X0X0XqXqX XK.g ; ; l a.<X5X5X",
"8X8X2Xp.d > > h K.+X0X0X0XqXqX0X0X0X0XqXqX0XqX0X0X0XqX0X7X-XOX^.n.%.+.*.h.A.G.D.G.D.A.g.*.+.%.m.'.$X0X0XqX=X XK.g % ; l a.<X5X5X",
"9X8X2Xc.c , t M K.+X7X7XqX7X7X7X7X7XqX7XqX7XqX7XqXqX7XqX7X7XOX'.m.,.#.g.C.D.G.G.G.F.S.j.f.#.,.M.'.&XqXqXqXqX XK.h , t c s.<X5X5X"
};
