/* XPM */
static char *rock_overlay1718870563[] = {
/* columns rows colors chars-per-pixel */
"64 64 218 2 ",
"   c #555554",
".  c #565C54",
"X  c #595D56",
"o  c #5B5C5A",
"O  c #5B6154",
"+  c #5C6857",
"@  c #5D655A",
"#  c #5C7658",
"$  c #646B54",
"%  c #61665D",
"&  c #666A58",
"*  c #626B5E",
"=  c #66745E",
"-  c #637A58",
";  c #6B7D59",
":  c #737D5B",
">  c #656565",
",  c #656964",
"<  c #6A6F66",
"1  c #6E6E6E",
"2  c #6A7564",
"3  c #6A7666",
"4  c #6B7B66",
"5  c #717B65",
"6  c #727D69",
"7  c #767675",
"8  c #767A75",
"9  c #7B7B7A",
"0  c #6A855B",
"q  c #6B885D",
"w  c #748159",
"e  c #78815A",
"r  c #798C5D",
"t  c #6B985F",
"y  c #759E5F",
"u  c #799A5F",
"i  c #6D8564",
"p  c #788965",
"a  c #73826B",
"s  c #758A6E",
"d  c #699562",
"f  c #789B64",
"g  c #75916B",
"h  c #7B936E",
"j  c #7B8D71",
"k  c #7B9272",
"l  c #7F9979",
"z  c #7CA461",
"x  c #7AAA64",
"c  c #72A66C",
"v  c #78B867",
"b  c #7FBC78",
"n  c #7EC36A",
"m  c #76CA6D",
"M  c #7BCB6D",
"N  c #7CC573",
"B  c #7EC974",
"V  c #858F5C",
"C  c #84915D",
"Z  c #869867",
"A  c #878E78",
"S  c #829275",
"D  c #819C76",
"F  c #869679",
"G  c #829F78",
"H  c #8B9E7C",
"J  c #87A663",
"K  c #95A562",
"L  c #9CAA68",
"P  c #89B666",
"I  c #98B566",
"U  c #85A278",
"Y  c #8EA27E",
"T  c #8AAA7E",
"R  c #95A67E",
"E  c #82BC7C",
"W  c #89B97D",
"Q  c #91BD77",
"!  c #A3B565",
"~  c #ADBB77",
"^  c #88C467",
"/  c #86C668",
"(  c #8EC468",
")  c #84CE6D",
"_  c #98C969",
"`  c #85D26D",
"'  c #8CD46D",
"]  c #8DDA6D",
"[  c #94D46D",
"{  c #9AD46E",
"}  c #93DC6D",
"|  c #9BDB6D",
" . c #86C777",
".. c #85CB73",
"X. c #98C67D",
"o. c #89D174",
"O. c #92D274",
"+. c #99D775",
"@. c #9ADD74",
"#. c #A9C969",
"$. c #B5C96B",
"%. c #B5CA6A",
"&. c #A6D66D",
"*. c #A3DC6E",
"=. c #ADDB6E",
"-. c #B1D56C",
";. c #BDD56C",
":. c #B3DD6E",
">. c #BBDE6E",
",. c #A6C67D",
"<. c #B6C87C",
"1. c #A7D774",
"2. c #B9D673",
"3. c #96E06D",
"4. c #9EE06D",
"5. c #A5E16E",
"6. c #ACE16E",
"7. c #B4E16E",
"8. c #BBE26E",
"9. c #C0DF6F",
"0. c #C2D775",
"q. c #C3DD72",
"w. c #C3E26F",
"e. c #CBE36F",
"r. c #CAE270",
"t. c #828282",
"y. c #878D81",
"u. c #8B8B8B",
"i. c #92998A",
"p. c #929292",
"a. c #969D94",
"s. c #999B96",
"d. c #9A9A9A",
"f. c #8CAE81",
"g. c #8DA889",
"h. c #93A787",
"j. c #96AD84",
"k. c #93AD8A",
"l. c #8DB282",
"z. c #8BBA86",
"x. c #93B585",
"c. c #9AB386",
"v. c #94BA85",
"b. c #95B78B",
"n. c #9DB58A",
"m. c #95A393",
"M. c #9BA293",
"N. c #99AB95",
"B. c #9BA19A",
"V. c #98B896",
"C. c #9EB19A",
"Z. c #A3AA8E",
"A. c #A7B488",
"S. c #A3BD8E",
"D. c #A4BB97",
"F. c #A2B29C",
"G. c #9E9FA0",
"H. c #9FA7A0",
"J. c #A2A4A4",
"K. c #A4ACA5",
"L. c #A6A7A8",
"P. c #A7A8AA",
"I. c #AAACAC",
"U. c #AAB7A9",
"Y. c #B1BEAC",
"T. c #ADAFB1",
"R. c #AFB1B2",
"E. c #AFBFB3",
"W. c #B1B3B5",
"Q. c #B2BDB5",
"!. c #B5B6B9",
"~. c #B7BBBA",
"^. c #B9BCBE",
"/. c #8BC684",
"(. c #8DC589",
"). c #9AC48B",
"_. c #95C988",
"`. c #9ECA8D",
"'. c #9DD485",
"]. c #99C593",
"[. c #9EC29E",
"{. c #A8C380",
"}. c #B5C480",
"|. c #A3D489",
" X c #A6C190",
".X c #A2CD91",
"XX c #ACC995",
"oX c #A4C39A",
"OX c #ACCB9E",
"+X c #B0C59F",
"@X c #B0CE98",
"#X c #A4D293",
"$X c #A8D997",
"%X c #AAD49B",
"&X c #ACDF9A",
"*X c #B5D59C",
"=X c #B7D89E",
"-X c #B9DA9F",
";X c #A9C4A5",
":X c #B3C5A8",
">X c #AEDAA0",
",X c #B9D6A3",
"<X c #BBDCA2",
"1X c #B2D1A9",
"2X c #BDD3AD",
"3X c #BFDCAA",
"4X c #AFC0B0",
"5X c #B4C2B2",
"6X c #BBC7B6",
"7X c #B6C9B3",
"8X c #BDCBB6",
"9X c #BBC1BC",
"0X c #BED3B1",
"qX c #BEE1A3",
"wX c #C0DFA9",
"eX c #C1E5A5",
"rX c #C0E0A8",
"tX c #BBBDC0",
/* pixels */
"&X&X&X&X&X&XeXeXeXeXeXeXeXeX&X&X&X&X&X&X&X&X&X&XeXeXeXeXeXeXeXeX&X&X&X&X&X&XeXeXeXeXeXeXeXeX&X&X&X&X&X&X&X&X&X&XeXeXeXeXeXeXeXeX",
"&X&X&X&X&X&XeXeXeXeXeXeXeXeX&X&X&X&X&X&X&X&X&X&XeXeXeXeXeXeXeXeX&X&X&X&X&X&XeXeXeXeXeXeXeXeX&X&X&X&X&X&X&X&X&X&XeXeXeXeXeXeXeXeX",
"&X&X&X&X&X&X&X&XeXeXeXeXeXeXeXeX&X&X&X&X&X&X&X&X&X&XeXeX<X*X*X*X#X#X#X#X.X.X#X#X*X*X*X-XqXqXeXeX&X&X&X&X&X&X&X&X&X&XeXeXeXeXeXeX",
"&X&X&X&X&X&X&X&XeXeXeXeXeXeXeXeX&X&X&X&X&X&X&X&X&X&XqX-XXXS.c.c.T T T T T j.W T c.c.n. XXX<XeXeX&X&X&X&X&X&X&X&X&X&XeXeXeXeXeXeX",
"&X&X&X&X&X&X&X&X&X&XeXeXeXeXeXeXeXeX&X&X&X&X&X&X&X&X$X`.c.H A j s s s s s s s s s s S R S.*XeXeXeXeX&X&X&X&X&X&X&X&X&X&XeXeXeXeX",
"&X&X&X&X&X&X&X&X&X&XeXeXeXeXeXeXeXeX&X&X&X&X&X&X&X&X#Xv.H a & % @ @ @ $ @ @ @ @ @ O 2 S j.@X-XeXeXeX&X&X&X&X&X&X&X&X&X&XeXeXeXeX",
"eXeX&X&X&X&X&X&X&X&X&X&XeXeXeXeXeXeXeXeX&X&X&X$X$X#X).T h = & $ O $ O O O O X O O O + i Y S.*X-XqXqXeXeX&X&X&X&X&X&X&X&X&X&XeXeX",
"eXeX&X&X&X&X&X&X&X&X&X&XeXeXeXeXeXeXeXeX&X&X$X#X).v.T U Z p : : : : e e e e w w ; 0 q p D R n. X*X-XqXeX&X&X&X&X&X&X&X&X&X&XeXeX",
"eXeXeXeX&X&X&X&X&X&X&X&X&X&XeXeXeXeXeXeXeXeX$X).T D h h Z K K K K K K K K K K K J z y y f s D h.S.*XeXeXeXeX&X&X&X&X&X&X&X&X&X&X",
"eXeXeXeX&X&X&X&X&X&X&X&X&X&XeXeXeXeXeXeXeXeX#Xb.G 4 = p K ! %.%.%.%.%.0.%.%.%.#._ _ ^ z r - 2 j j.XXqXeXeXeX&X&X&X&X&X&X&X&X&X&X",
"eXeXeXeXeXeX&X&X&X&X&X&X&X&X&X&XeXeXqXqX<X*XXXx.j = $ w K #.9.w.e.e.q.q.e.w.e.7.6.*.{ P u - $ w Y S.*X=X-XeXeXeX&X&X&X&X&X&X&X&X",
"eXeXeXeXeXeX&X&X&X&X&X&X&X&X&X&XeXeXqX*XXXS.j.U g 0 ; f P #.:.w.;.e.e.e.e.e.e.8.7.6.&._ K u r r Z R n. X@X-XeXeX&X&X&X&X&X&X&X&X",
"eXeXeXeXeXeXeXeX&X&X&X&X&X&X&X&X&X&X<XXXx.g.k g d d d x P &.6.7.w.e.e.e.e.e.e.w.w.8.7.#.#.! K K Z j S j.S.*XqXeXeXeX&X&X&X&X&X&X",
"eXeXeXeXeXeXeXeX&X&X&X&X&X&XeX&X&X&X<XS.H a * 0 d c v n ' } 4.6.7.w.e.e.e.e.e.e.e.w.9.9.;.%.%.K Z : 2 j c.XXqXeXeXeX&X&X&X&X&X&X",
"&X&XeXeXeXeXeXeXeXeX&X$X$X#X$X'.#X.X).T s % O # d v m M ] ] 4.5.7.8.w.w.e.w.e.e.w.w.w.w.9.w.;.! V $ % 4 H S.*X-XeXeXeXeX&X&X&X&X",
"&X&XeXeXeXeXeXeXeXeX$X#X).z.l.l.f.f.U j 5 @ . # t v M ] ] ] } 4.6.7.8.7.8.7.7.8.7.8.8.8.8.7.-.I Z = % 2 j Y c. X*XqXeXeX&X&X&X&X",
"&X&X&X&XeXeXeXeXeXeX-XXXT G s s s s a 4 @ . . # t v ` ] } 3.3.4.5.5.6.6.6.6.6.6.6.6.6.6.6.6.1.I Z 6 , < 4 a l h.S.*XqXeXeXeX&X&X",
"&X&X&X&XeXeXeXeXeXeX-X XG 5 @ + @ @ O X .   . - y ^ ] } ] 3.3.3.4.4.4.5.4.4.| 5.4.4.5.| | 5.| P J a 1 , > % 2 j c.XXqXeXeXeX&X&X",
"&X&X&X&X&X&XeXqX-X*XXXc.S ; O O O O O O . . + 0 y / ] } 3.3.3.3.@.@.@.@.@.@.@.@.@.@.@.@.@.@.{ Q U j 7 , %   O 4 h.XX<XeXeXeXeXeX",
"&X&X&X&X&X&XqX-XXXS.c.U h p 0 ; 0 w w : ; 0 0 t v / ] ] 3.} 3.@.@.'.|.|.|.|.|.|.|.|.|.|.|.|.`.x.h.y.9 1 >   X 4 H XXqXeXeXeXeXeX",
"&X&X&X&X&X&X$X`.c.H k h f y z z J K K K J z z v v ) ` ] ] } @.@.'.#XOX;X;X=XOXOX;XOXOXOXXX:X+XD.M.i.t.9 > o X 4 U ).qXeXeXeXeXeX",
"&X&X&X&X&X&X#Xv.H a 2 i y P ( _ #.#.#.#.#.( ( / ) ) M ` ] ] @.'.#X:X5X7X5X5X5X5X7X5X5X5X5X~.:XU.J.s.u.9 1 o o 4 G ).qXeXeXeXeXeX",
"&X&X&X$X#X#X`.T k = $ q J ( | =.7.8.w.8.=.5.3.} ' ` M ` ` } @.'.XX5X9X^.tX^.9X^.^.^.^.^.^.!.!.T.L.d.p.t.1 o o 2 l x.#X#XqX<XeXeX",
"&X&X$X#X).v.W l f r q y P _ 5.7.8.w.e.8.8.6.5.*.| } O.' ] ] O.'.#X5X^.^.tXtXtXtXtX^.^.^.!.W.T.P.J.d.p.u.7 > > 2 s G l.v.XX<XeXeX",
"eXeX$X).W D j g f f x P _ -.7.8.w.w.e.w.w.8.7.6.6.=.&.| [ ' o._.oX4X^.tXtXtXtXtXtXtX^.!.T.I.J.J.G.d.p.u.7 1 > < 2 a k U v.`.qXeX",
"eXeX#Xv.l 4 = 0 f P ( { =.7.w.w.e.e.e.e.e.e.w.w.w.8.:.=.{ ` ../.[.4XtX^.tXtXtXtXtX^.^.W.I.J.G.d.d.d.p.u.t.7 1 1 , % 2 s l.].qXeX",
"eXeX-Xn.k * O - y ^ | *.7.8.e.e.e.e.e.e.e.e.e.e.e.e.w.-.&.' o./.].;X5XQ.Q.~.tX~.^.^.!.T.P.G.d.d.d.d.p.u.t.7 1 > @   o 4 U ).&X&X",
"eXeX-Xn.k + O - y ^ | 5.7.8.e.e.e.e.e.e.e.e.e.e.e.e.e.8.=.{ O.X.`.oX;XU.U.T.R.R.T.T.T.I.J.G.d.s.p.d.p.u.t.9 1 > o   o 2 U ).$X&X",
"eXeX=Xn.S * O - y ^ | 5.7.w.e.e.e.e.e.e.e.e.e.e.e.e.e.>.>.-.&.1.'._.].V.C.B.I.P.L.L.L.J.d.d.d.d.d.d.p.u.t.9 1 > o   . 4 l ).$X&X",
"eXeX-Xn.S * O - y ^ | 5.7.8.e.e.e.e.e.e.e.e.e.e.e.e.e.e.w.8.:.=.O./.B z.V.m.B.J.G.G.G.s.d.d.d.d.d.p.p.u.t.7 1 > o   o 4 U ).$X&X",
"eXeX=Xn.S * X - y ^ | 5.7.8.e.e.e.e.e.e.e.e.e.e.e.e.e.e.e.e.w.:.+.o.N b g.g.m.a.s.s.s.M.d.Z.d.Z.Z.d.s.i.A t.7 < %   . 4 l ).&X&X",
"eXeX=Xn.S * O - y ^ | 5.7.w.e.e.e.e.e.e.e.e.e.e.e.e.e.e.e.e.w.-.{ ' m b E z.g.g.h.j.A.Z.Z.Z.A.A.Z.Z.Z.~ R R Z p , o O 4 U ).$X&X",
"&X&X#Xl.g * O # y / | 5.7.w.r.r.e.e.e.e.e.e.e.e.e.e.e.e.r.r.w.=.{ ) M N E b W W z.X.Q ,.{.{.}.}.}.}.}.}.! ~ L Z : X o 6 R XX<X3X",
"&X&X#Xl.k + O 0 y / | 5.7.8.e.r.e.e.e.e.e.e.e.e.e.e.e.r.r.r.w.=.{ ' m N N N N  .o.O.+.1.2.2.0.0.0.0.0.0.0.0.$.K V & o 6 R XXqXeX",
"&X&X#Xl.s * . # y ^ } *.6.8.>.w.q.w.9.w.w.q.w.9.w.q.w.q.w.w.>.=.{ ) m m M B ) ) [ } 4.6.:.w.r.r.r.r.q.r.q.e.9.! V & O 5 i.<.qXeX",
"&X&X#Xz.s * O # y v ' | | &.=.=.=.:.=.=.:.=.=.=.=.:.=.=.=.:.=.{ ' / m ) ) ' [ { | *.6.7.8.w.r.r.e.e.r.r.e.q.0.! V & O 5 H XXqXeX",
"&X&X#Xl.g * . # t v M ` o.] +.+.{ { { { [ { { { { { { { { { { [ ) ) M ) [ { =.=.=.7.7.8.w.e.e.e.e.e.e.e.e.e.;.! C $ O 4 Y XX<XeX",
"&X&X#Xx.s * O # t v M ) B B ` ` ) ) ) ) ) ..) ) ) ) ) ) ) ) ) M M m M ' { :.>.>.w.w.w.w.e.e.e.e.e.e.e.e.e.e.;.! V $ O 4 Y XXqXeX",
"eXeX.Xl.j * . # t c N m m m m m m m m m m B B N N N N N m M M M M ) ) [ &.>.w.e.e.e.e.e.e.e.e.e.e.e.e.e.e.e.;.! C $ . 4 G ).qXeX",
"eXeX#Xx.s * . + d l b b b m m m m m N B  ./././.z.E b  .N ..` ` ` ' +.&.:.w.e.e.e.e.e.e.e.e.e.e.e.e.e.e.w.8.-.I r $ O 4 U ).qXeX",
"eXeX*Xn.k * X * i l g.b b N N m m m B B (.].[.V.b.z.g.z. ...' } | &.=.:.>.w.e.e.e.e.e.e.e.e.e.e.e.e.r.w.8.7.&.P r $ O 4 l ).$X&X",
"eXeX-Xn.j @ . , 8 u.g.g.b N m m m m B /.].;XU.U.H.B.m.z.X.O.} | =.:.>.w.w.e.e.e.e.e.e.e.e.e.e.e.e.e.r.8.7.*.[ P r @ O 4 l `.$X&X",
"eXeX*Xn.k , X > 7 u.a.g.g.E B B B B  .(.[.E.Q.R.L.H.m.N.W O.| *.6.8.>.w.9.9.9.w.9.9.q.w.q.9.9.q.w.q.>.2.=.1.O.J q + O 4 l ).$X&X",
"eXeX*Xn.S ,   > 7 u.a.m.g.(.(.(.(.(.(.[.;XE.tXW.L.H.B.k.v.o.' | | 1.=.=.=.=.=.=.=.:.=.:.=.=.:.-.2.<.<.<.,.X.Q z q + O 4 U `.$X&X",
"eXeX-Xn.S * X > 7 u.d.B.H.V.[.[.[.[.[.U.E.E.tXT.P.G.d.g.W  .` ' [ [ { { +.[ { { { { { { { { { X.{.A.A.A.A.c.T l 4 @ O 4 l ).&X&X",
"eXeX*Xn.S , o > 7 u.d.H.K.U.E.E.E.4X4XE.tXtXtXT.P.G.a.g.l. .M B M ) ) ) ) ) ) ) ) ) ) ) ) ) .. .z.c.M.Z.M.m.i.A 1 o O 2 U _.&X&X",
"&X&X-Xn.S , . > 7 u.d.H.T.tXtXtXtXtXtXtXtXtX!.W.P.G.a.g.l.N B B ..B B B  .B B B ..B B B B B  .z.g.m.a.s.d.a.p.t.1 o o 6 U ).$X&X",
"&X&X*Xn.S ,   > 7 u.d.H.I.W.tXtXtXtXtXtXtXtXtXT.L.H.d.m.V.b.(.(.(.(.(.(.(.(.(.(.(.(.(.(.(.(.z.V.k.M.s.s.d.p.p.t.7 o o 5 G ).$X&X",
"&X&X#Xx.S % o > 7 u.d.J.I.!.tXtXtXtXtXtXtXtX!.W.P.G.d.B.C.C.[.[.[.[.[.[.[.[.[.[.[.[.[.[.[.[.[.F.C.d.d.d.p.d.p.t.1   o 6 h.XX$X&X",
"&X&X.XW S % . > 7 u.d.J.I.!.^.tXtXtXtXtXtXtXtXR.P.G.G.H.I.U.E.4XE.E.E.4XE.4XE.E.E.E.E.5XE.E.E.I.H.H.d.p.d.d.p.t.1 o o 6 H XX$X&X",
"&X&X#Xx.l 2 , < A p.B.K.T.!.tXtXtXtXtXtX~.tX!.T.L.G.d.J.I.!.^.^.tXtXtX^.tXtXtX^.tX^.^.^.^.^.!.R.L.G.d.d.p.d.u.t.1 o o 6 Y XXrXeX",
"&X&X$X).T k j A i.M.F.U.W.!.tXtXtXtXtX~.!.W.T.P.J.d.G.J.T.!.^.tXtXtXtXtXtXtXtXtXtXtXtXtXtXtX^.R.L.H.d.d.d.d.p.t.1 o o 6 Y XXqXeX",
"&X&X$X.Xv.j.f.g.D.D.:XY.5X^.^.^.tXtX^.!.T.I.L.L.G.d.s.J.I.!.tXtXtXtXtXtXtXtXtXtXtXtXtXtXtXtX^.W.L.G.d.p.d.d.p.t.7 o o 6 Y XX<XeX",
"&X&X&X$X#X`.`.`.*X,X,X9X8X6X^.^.tXtX^.W.I.L.G.d.d.d.d.J.T.!.^.tXtXtXtXtXtXtXtXtXtXtXtXtX^.^.^.R.L.G.d.s.p.d.p.t.1 o X 5 Y XXqXeX",
"&X&X&X&X&X&X&X&X&X%XwXwXwXtXwXtX9X9X~.Y.I.H.s.B.d.s.B.K.I.Q.9X^.^.9X9X9X9X9X9X9X9X9X9X9X9X9X9XW.I.d.B.M.B.s.a.y.8 , * s R XXqXeX",
"&X&X&X&X&X&X&X&X&X&XwXwXwX9XwXtX8X6X7X:XU.F.C.C.C.C.F.U.5X6XwX9X7X7X7X7X7X7X7X7X7X7X8X8X8X8X7X5XY.U.F.C.C.C.N.h.F s s G n.*XqXeX",
"eXeX&X&X&X&X&X&X&X&X&X&XwXwX0X0X0X0X0X2XOXoXoXoXoXD.[.;X1X1X0XwX0X0X1X1X1X1X1X1X1X1X1X1X0X0X0X2X1X:X:X+XoXoXD.V.k.f.T x.).#XqXeX",
"eXeX&X&X&X&X&X&X&X=X&X&XrXrXwXwXwXrX3X3X%X%X%X%X%X$X#X>X>X1XwXwXqXqX>X>X>X>X>X>X>X&X>X>XrXrXrX3X<X<X-X,X%X%X%X$X.X].`..X#X&XqXeX",
"eXeXeXeX&X&X&X&X&X&X&X&X&X&XrXeXeXeXeXeXeXeX&X&X&X&X&X&X$X&X&X&XqXeXeXeX&X&X>X&X&X&X&X&X&X&XeXeXeXeXeXqXqXeX&X&X&X&X&X&X&X&X&X&X",
"eXeXeXeX&X&X&X&X&X&X&X&X&X&XeXeXeXeXeXeXeXeX&X&X&X&X&X&X&X&X&X&XeXeXeXeX&X&X&X&X&X&X&X&X&X&XeXeXeXeXeXeXeXeX&X&X&X&X&X&X&X&X&X&X",
"eXeXeXeXeXeX&X&X&X&X&X&X&X&X&X&XeXeXeXeXeXeXeXeX&X&X&X&X&X&X&X&XeXeXeXeXqXeX&X&X&X&X&X&X&X&X&X*XeXeXeXeXeXeXeXeX&X&X&X&X&X&X&X&X",
"eXeXeXeXeXeX&X&X&X&X&X&X&X&X&X&XeXeXeXeXeXeXeXeX&X&X&X&X&X&X&X&XeXeXeXeXeXeX&X&X&X&X&X&X&X&X&X&XeXeXeXeXeXeXeXeX&X&X&X&X&X&X&X&X",
"eXeXeXeXeXeXeXeX&X&X&X&X&X&X&X&X&X&XeXeXeXeXeXeXeXeX&X&X&X&X&X&XeXeXeXeXeXeXeXeX&X&X&X&X&X&X&X&X&X&XeXeXeXeXeXeXeXeX&X&X&X&X&X&X",
"eXeXeXeXeXeXeXeX&X&X&X&X&X&X&X&X&X&XeXeXeXeXeXeXeXeX&X&X&X&X&X&XeXeXeXeXeXeXeXeX&X&X&X&X&X&X&X&X&X&XeXeXeXeXeXeXeXeX&X&X&X&X&X&X"
};
