/* XPM */
static char *rock1711109471[] = {
/* columns rows colors chars-per-pixel */
"64 64 206 2 ",
"   c None",
".  c #4F4F4F",
"X  c #555555",
"o  c #555D53",
"O  c #5C5E52",
"+  c #5A5A5A",
"@  c #576052",
"#  c #5C6152",
"$  c #5B6659",
"%  c #5F7056",
"&  c #5A7458",
"*  c #5D7C5A",
"=  c #646A59",
"-  c #637156",
";  c #6B7056",
":  c #657B58",
">  c #747C58",
",  c #70765B",
"<  c #636363",
"1  c #6A6B6A",
"2  c #6B6D64",
"3  c #687563",
"4  c #767C69",
"5  c #747474",
"6  c #7C7C7C",
"7  c #64835A",
"8  c #69845A",
"9  c #6B8D5C",
"0  c #73855A",
"q  c #7C855A",
"w  c #7E8C5D",
"e  c #65955F",
"r  c #6F905C",
"t  c #72905C",
"y  c #78A25F",
"u  c #7E8E62",
"i  c #699B62",
"p  c #6F906B",
"a  c #7D986C",
"s  c #7E9368",
"d  c #7B8179",
"f  c #798873",
"g  c #6EA262",
"h  c #6DAF67",
"j  c #74A461",
"k  c #7CAA62",
"l  c #7DA463",
"z  c #7EB966",
"x  c #75BE69",
"c  c #75B56E",
"v  c #7EBE77",
"b  c #7CAA77",
"n  c #7CC269",
"m  c #76CA6D",
"M  c #7CCC6D",
"N  c #7BC572",
"B  c #7EC876",
"V  c #85925D",
"C  c #899168",
"Z  c #85887A",
"A  c #969F73",
"S  c #849C76",
"D  c #87AA62",
"F  c #88A862",
"G  c #96A461",
"H  c #91AB63",
"J  c #9BAB63",
"K  c #9EAB6C",
"L  c #83B264",
"P  c #8BB56D",
"I  c #93BD66",
"U  c #99B566",
"Y  c #8EB677",
"T  c #83BA7C",
"R  c #8BBC7D",
"E  c #83B67E",
"W  c #9CA579",
"Q  c #A2AB7F",
"!  c #ADBC74",
"~  c #86C067",
"^  c #82C769",
"/  c #81CD6D",
"(  c #8CCE69",
")  c #8DC66E",
"_  c #93CE69",
"`  c #9ECF6A",
"'  c #91C769",
"]  c #85D36D",
"[  c #8BD36D",
"{  c #8DD96D",
"}  c #95D36E",
"|  c #9BD56E",
" . c #93DD6D",
".. c #9BDC6E",
"X. c #85CA74",
"o. c #82C27B",
"O. c #8FC07D",
"+. c #84C578",
"@. c #94C47C",
"#. c #9ACA78",
"$. c #8BD173",
"%. c #94D474",
"&. c #9CD773",
"*. c #9ADC76",
"=. c #99DA78",
"-. c #AFC268",
";. c #ABCF6A",
":. c #A4C768",
">. c #A2D56C",
",. c #A5DB6E",
"<. c #ACDA6E",
"1. c #ACD36C",
"2. c #B6D16B",
"3. c #BBD16B",
"4. c #B4DD6E",
"5. c #BDDE6F",
"6. c #A3C47E",
"7. c #ABC67E",
"8. c #B4C57D",
"9. c #B8C77E",
"0. c #B5CC7A",
"q. c #AAD771",
"w. c #A8D873",
"e. c #A1D279",
"r. c #BDDA73",
"t. c #B2D773",
"y. c #B2C46B",
"u. c #96E06D",
"i. c #9CE06D",
"p. c #A3E16D",
"a. c #ABE16E",
"s. c #B6E26E",
"d. c #BCE26F",
"f. c #C1DE6E",
"g. c #C1D671",
"h. c #C4DA73",
"j. c #C3E26F",
"k. c #CBE36F",
"l. c #818181",
"z. c #8E8E8E",
"x. c #848A81",
"c. c #8D948B",
"v. c #899F83",
"b. c #96998B",
"n. c #929292",
"m. c #959E95",
"M. c #9A9A9A",
"N. c #989997",
"B. c #89AF85",
"V. c #8EAB8B",
"C. c #8EA681",
"Z. c #91A58E",
"A. c #90AE8A",
"S. c #9BA78E",
"D. c #89B584",
"F. c #89BA84",
"G. c #94B486",
"H. c #95B188",
"J. c #9DB388",
"K. c #91BF8E",
"L. c #97A193",
"P. c #9CA193",
"I. c #95A994",
"U. c #9BA89B",
"Y. c #99A298",
"T. c #93B491",
"R. c #99B997",
"E. c #9EB29E",
"W. c #9EBF9E",
"Q. c #AAB489",
"!. c #A6B487",
"~. c #A0B298",
"^. c #9FA5A0",
"/. c #A4A5A5",
"(. c #A6A6A8",
"). c #AAABAC",
"_. c #A2AAA4",
"`. c #A2BDA2",
"'. c #A9B1AB",
"]. c #A7B2A8",
"[. c #AEAFB1",
"{. c #AFBAB2",
"}. c #AFB0B2",
"|. c #B2B3B6",
" X c #B2BFB6",
".X c #B7B9BB",
"XX c #B9BBBE",
"oX c #B4B6B8",
"OX c #86C780",
"+X c #8DC589",
"@X c #8BC086",
"#X c #90C58C",
"$X c #94C989",
"%X c #9DCA8C",
"&X c #9ACD81",
"*X c #9FD880",
"=X c #99C497",
"-X c #A4D38C",
";X c #A6C79B",
":X c #A2C2A1",
">X c #ADCAA1",
",X c #ABC0AD",
"<X c #A9C7A1",
"1X c #B2C5AD",
"2X c #B6C1B6",
"3X c #BBBDC0",
/* pixels */
"                                                                                                                                ",
"                                                                                                                                ",
"                                                                                                                                ",
"                                                                                                                                ",
"                                                          . . . . . . . . . . . . . .                                           ",
"                                                        . . . . . . . . . . . . . . . .                                         ",
"                                                        # # # = # # O # = # # # @ @ @ o                                         ",
"                                                      ; > q q q > V q q q q q 0 0 8 8 : %                                       ",
"                                                  . O > V G J J J J J J J J J H D y y t : @ .                                   ",
"                                                . . # q G -.3.3.g.3.3.3.3.3.2.;.` _ ~ y 8 @ . .                                 ",
"                                                o o - w U 3.j.k.k.k.f.k.k.k.k.s.a.p.} L t ; # O                                 ",
"                                              $ & * 9 y I 1.d.d.k.k.k.k.k.k.j.d.s.a.>.:.F V q 0 ;                               ",
"                                          . o & 7 e g z ) ,.a.s.f.k.k.k.k.k.k.j.j.d.4.;.:.J G V > O .                           ",
"                                        . . o * e h n ^ [  .p.a.s.j.k.k.k.k.k.k.j.j.j.j.f.3.-.G q # . .                         ",
"                                        . . o * i x M ] {  .i.a.s.d.j.j.j.k.j.j.j.j.j.j.j.k.2.J q = X X                         ",
"                                      . . . o 7 g m ] ] {  .i.p.a.s.s.s.s.s.s.s.d.s.s.s.s.s.;.J u = + X X                       ",
"                          . . . . . . . . . @ 7 j M { {  .u.u.i.i.a.a.a.a.a.a.a.a.a.a.a.a.a.| U s 2 < + + . .                   ",
"                        . . . . . . . . . . @ 8 y (  . .u.u.u.u.i.i.i.p.i.i.i.i.i.i.i.p.i..._ P S 4 1 < + . . .                 ",
"                        o o @ @ # # # # @ @ % 9 k [ u.u. .u.u.u.*.*.*.*.=.*.=.*.=.=.*.*.*.*.#.Y S d 5 < + X . .                 ",
"                      % : 8 8 0 0 q q 0 8 8 r y z / { {  . .u.*.*X*X-X-X-X-X-X-X-X-X-X-X-X-X%XJ.C.x.6 1 < X . .                 ",
"                  . @ : t y y D H H J H D y L z n / ] { {  .*.*X-X;X>X>X>X>X>X>X>X>X>X>X>X>X;X~.m.c.l.5 < X . .                 ",
"                . . @ 8 y ~ _ >.;.2.2.1.>._ ( ( / M M ] {  .*.-X>X1X2X2X2X2X2X2X2X2X2X2X XXXoX'.^.N.z.6 < X . .                 ",
"                @ @ % r L _ p.a.s.j.j.d.a.p. . .[ ] ] ] { { =.-X>X2X3X3X3X3X3X3X3X3X3XXX.X.X|.)./.M.z.6 1 + X X                 ",
"              % : 8 r D I ,.a.s.j.k.j.j.s.a.,.,...} } $.{ { $.-X>X2X3X3X3X3X3X3X3X3XXX.XoX}.).(.^.M.n.l.5 < + X +               ",
"          . @ : r y L I ` <.d.j.j.j.k.j.j.s.s.s.a.<.,.| } ] $.$X:X2X3X3X3X3X3X3X3X3X.X|.}.(././.M.M.n.l.5 1 < < + . .           ",
"        . . @ 8 j ~ } >.s.d.j.j.k.k.k.k.k.j.j.j.j.j.5.,.%./ X.#X:X2X3X3X3X3X3X3X3X3X.X|.(./.M.M.M.M.n.z.6 5 1 < + X . .         ",
"        . . @ 8 y ( i.a.s.k.k.k.k.k.k.k.k.k.k.k.k.k.f.<.| ( X.$X=X,X2X2X X.X3XoX.X.XoX)./.M.M.N.M.M.n.l.l.5 1 < + . . .         ",
"        . . @ 8 y ( i.a.s.j.k.k.k.k.k.k.k.k.k.k.k.k.j.5.<.| %.&X%X;X:X].'.[.[.[.}.}.).(.^.M.M.N.N.N.n.z.l.5 1 < + X . .         ",
"        . . @ 8 k _ i.a.s.j.k.k.k.k.k.k.k.k.k.k.k.k.j.5.5.<.q.e.&X#X=XR.E.^.(.(.(.(././.M.M.N.N.N.N.n.z.l.5 1 < + X . .         ",
"        . . @ 8 y [ i.a.s.j.k.k.k.k.k.k.k.k.k.k.k.k.k.k.j.f.4.q.%.+.B D.V.U.M.^.M.M.M.M.M.M.N.N.N.M.n.l.l.5 5 < + X . .         ",
"        . . @ 8 k _ i.a.s.j.k.k.k.k.k.k.k.k.k.k.k.k.k.k.k.k.j.<.%./ N v B.Z.m.m.m.Z.N.N.P.P.P.P.P.P.N.b.x.Z 4 ; + X . .         ",
"        . . @ 8 k [ i.a.s.j.k.k.k.k.k.k.k.k.k.k.k.k.k.k.k.k.f.<.} / m v E B.V.V.H.J.J.!.Q.Q.Q.Q.Q.Q.Q.Q W A C 4 ; X . .         ",
"        . . @ 8 y ( i.a.s.j.k.k.k.k.k.k.k.k.k.k.k.k.k.k.k.k.5.<.} / m N v v D.R @.@.@.6.7.9.9.9.9.-Xg.! ! ! K C , O . .         ",
"        . . @ 8 k [ i.a.s.j.k.k.k.k.k.k.k.k.k.k.k.k.k.k.k.k.5.<.} / m N N N N X.$.%.&.q.t.r.h.h.h.h.h.g.g.g.y.G > O . .         ",
"        . . @ 7 k ( i.,.s.s.j.d.j.5.5.f.f.j.j.d.f.j.f.d.j.5.r.,.} / m M M M / [  . .p.a.d.j.k.k.k.k.k.k.k.k.3.J V O . .         ",
"        . . o 7 y M { } | <.<.<.<.<.<.<.<.<.<.<.<.<.<.<.<.<.,.} ( M M / ( } | ..,.a.a.s.j.j.k.k.k.k.k.k.k.h.3.J q O . .         ",
"        . . o 7 g n M [ [ $.} } } } } } } %.} } } } } } } } } ( M M M [ } ,.<.4.4.s.s.d.j.k.k.k.k.k.k.k.k.k.3.J q O . .         ",
"        . . o * e n M M B m ] M / / / / / / / / / / / / / M M M M M M } ,.4.j.h.j.j.j.k.k.k.k.k.k.k.k.k.k.k.3.J q = . .         ",
"        . . X * i c N m N m m m m m m N B B B N N N N N M M M M M / ( | <.j.k.k.k.k.k.k.k.k.k.k.k.k.k.k.k.j.3.J q O . .         ",
"        . . o 3 p b T N N m m m m m m +.OX+X+X@XF.T T o.X./ ] [ [ } | <.4.j.k.k.k.k.k.k.k.k.k.k.k.k.k.h.h.j.;.H 0 O . .         ",
"        . . o 3 f v.B.E v N m m m m m OX#X=X:XR.T.T.B.o.X.%.{  .>.,.4.4.h.j.k.k.k.k.k.k.k.k.k.k.k.k.k.f.s.a.>.D 0 # . .         ",
"        . . X 1 6 c.V.B.v N m m m m B +X=X,X{.'.^.Y.Z.G.@.%.u.,.a.5.h.j.j.k.k.k.k.k.k.k.k.k.k.k.k.k.j.5.a.,._ k 8 # . .         ",
"        . . + 1 6 z.m.V.B.o.B B B B OX=X:X XXX[.(.M.L.G.@.%...,.<.5.j.d.5.j.f.d.d.d.j.j.5.j.j.r.h.h.g.3.w.&.) k 8 o . .         ",
"        . . X 1 6 n.m.I.T.K.#X#X#X#X=X:X{. XXX[.(.M.L.H.O.$.{  .,.,.<.<.<.<.<.<.<.<.<.<.<.<.<.0.0.9.-X8.&X#.Y a : o . .         ",
"        . . X 1 6 z.M.^.E.`.W.:X:X:X:X,X2X2X.X[.(.M.L.V.o.X.] ] [ } %.| } } } } } } %.} } } ` #.6.!.!.!.!.J.C.f 2 o . .         ",
"        . . X 1 6 n.M.^.'.{.2X X X X XXXXXXX.X[.(.^.m.V.R B M N M M M X.M ] / X./ / / / / / X.R G.S.P.P.m.m.c.d 1 + . .         ",
"        . . + 1 6 z.M.(.[.3X3X3X3X3X3X3X3X3XXX[.(.M.m.V.D.o.B B X.+.B B X.B B B +.B B B +.B o.D.V.m.N.N.N.N.c.6 1 + . .         ",
"        . . X 1 6 z.^.^.[.oX3X3X3X3X3X3X3X3XoX[.(.M.N.I.T.K.#X#X+X#X+X#X+X#X#X#X+X#X#X#X#X#X#XT.I.m.M.N.M.M.z.6 1 X . .         ",
"        . . X 1 6 z.^.(.[.oX3X3X3X3X3X3X3X3X.X).(.M.M.^.E.`.W.:X:XW.W.:X:X:X:XW.:XW.:XW.:X:XW.^.U.M.M.N.M.M.z.6 1 X . .         ",
"        . . + 1 6 z.M./.[.oX3X3X3X3X3X3X3X3X3X[.(.M.^.^.(.[. X X2X2X2X X X2X2X X2X2X2X X2X2X{.)./.M.N.N.n.M.z.6 1 X . .         ",
"        . . X 1 6 z.M.(.|.oX3X3X3X3X3X3X.X3X}.).^.M.M.(.[.3X3X3X3X3X3X3X3X3X3X3X3X3X3X3X3X3X.X[.(.M.N.N.M.M.z.6 1 X . .         ",
"          . + 1 6 n./.).|.3X3X3X3X3X3X.X|.[.).(./.M.^.(.[.|.3X3X3X3X3X3X3X3X3X3X3X3X3X3X3X3X.X[.(.M.N.N.M.M.z.6 1 X . .         ",
"                      [.|.3X3X3X3X3X3X|.[.(././.M.M.M.).}.3X3X3X3X3X3X3X3X3X3X3X3X3X3X3X3X3X.X[.(.M.N.N.N.N.z.6 1 X . .         ",
"                        3X3X3X3X3X3X.X[.(./.M.M.M.M.M.(.).3X3X3X3X3X3X3X3X3X3X3X3X3X3X3X3X3X.X[.(.^.N.N.N.N.z.6 1 X . .         ",
"                        3X3X3X3X3X3X3X[./.M.M.M.N.N.M.(.[.3X3X3X3X3X3X3X3X3X3X3X3X3X3X3X3X3X3X[.(.M.M.N.M.M.z.6 1 X . .         ",
"                          3X3X3X3X3X.X|.(.M.M.M.N.M.M.(.[.3X3X3X3X3X3X3X3X3X3X3X3X3X3X3X3X3X.X|.(.M.M.M.M.M.z.6 1 + X           ",
"                                                                                                                                ",
"                                                                                                                                ",
"                                                                                                                                ",
"                                                                                                                                ",
"                                                                                                                                ",
"                                                                                                                                ",
"                                                                                                                                ",
"                                                                                                                                "
};
